<svg width="218" height="79" viewBox="0 0 218 79" fill="none" xmlns="http://www.w3.org/2000/svg">
<path d="M217.126 14.5359C216.87 13.0856 215.486 12.1178 214.036 12.3741C212.586 12.6304 211.618 14.0139 211.874 15.4642C212.13 16.9145 213.514 17.8823 214.964 17.626C216.414 17.3697 217.382 15.9862 217.126 14.5359ZM194.536 8.57364L194.383 9.04959L194.536 8.57364ZM5.89744 75.5729C5.64111 74.1226 4.25763 73.1547 2.80734 73.411C1.35706 73.6673 0.389166 75.0508 0.645494 76.5011C0.901822 77.9514 2.2853 78.9193 3.73559 78.6629C5.18587 78.4066 6.15377 77.0231 5.89744 75.5729ZM214.653 14.5241L213.655 14.2028L213.349 15.1547L214.347 15.476L214.653 14.5241ZM211.659 13.5601L209.662 12.9175L209.356 13.8694L211.352 14.512L211.659 13.5601ZM207.666 12.2749L205.67 11.6322L205.363 12.5841L207.36 13.2268L207.666 12.2749ZM203.673 10.9896L201.677 10.3469L201.37 11.2988L203.367 11.9415L203.673 10.9896ZM199.681 9.7043L197.684 9.06165L197.378 10.0136L199.374 10.6562L199.681 9.7043ZM195.688 8.41901L194.69 8.0977L194.383 9.04959L195.381 9.37091L195.688 8.41901ZM194.69 8.0977C194.367 7.99398 194.045 7.89129 193.723 7.78961L193.422 8.74333C193.743 8.8444 194.063 8.94649 194.383 9.04959L194.69 8.0977ZM191.786 7.19179C191.141 6.99659 190.494 6.80546 189.847 6.61837L189.57 7.579C190.213 7.76498 190.855 7.95498 191.497 8.14903L191.786 7.19179ZM187.905 6.06924C187.253 5.88901 186.6 5.71288 185.947 5.54084L185.693 6.50785C186.342 6.67887 186.991 6.85396 187.639 7.03312L187.905 6.06924ZM183.987 5.03699C183.333 4.87312 182.679 4.71333 182.024 4.5576L181.793 5.53045C182.444 5.68524 183.094 5.84409 183.744 6.00698L183.987 5.03699ZM180.053 4.10109C179.394 3.95259 178.734 3.80819 178.074 3.6679L177.866 4.64603C178.522 4.78549 179.178 4.92903 179.833 5.07665L180.053 4.10109ZM176.094 3.25928C175.433 3.12708 174.772 2.99898 174.111 2.87494L173.926 3.8578C174.584 3.9811 175.241 4.10844 175.898 4.23985L176.094 3.25928ZM172.117 2.51333C171.452 2.3969 170.786 2.28459 170.121 2.17636L169.961 3.16339C170.622 3.27097 171.283 3.38261 171.944 3.49835L172.117 2.51333ZM168.125 1.86398C167.457 1.76359 166.789 1.66731 166.121 1.57513L165.985 2.56575C166.649 2.65737 167.313 2.75308 167.976 2.85287L168.125 1.86398ZM164.114 1.31051C163.445 1.2264 162.775 1.14641 162.106 1.0705L161.994 2.06412C162.659 2.13958 163.324 2.2191 163.989 2.3027L164.114 1.31051ZM160.096 0.854767C159.424 0.786734 158.752 0.722814 158.079 0.663L157.991 1.65906C158.659 1.71852 159.327 1.78206 159.995 1.84968L160.096 0.854767ZM156.063 0.495852C155.391 0.444231 154.72 0.396702 154.048 0.353254L153.983 1.35117C154.651 1.39436 155.319 1.4416 155.987 1.49291L156.063 0.495852ZM152.026 0.234755C151.352 0.19934 150.678 0.168025 150.004 0.1408L149.964 1.13998C150.633 1.16705 151.303 1.19817 151.973 1.23338L152.026 0.234755ZM147.984 0.071368C147.309 0.0522688 146.635 0.037257 145.961 0.0263266L145.945 1.02619C146.614 1.03706 147.285 1.05198 147.955 1.07097L147.984 0.071368ZM143.936 0.00573424C143.262 0.00295461 142.588 0.00424976 141.914 0.00961438L141.922 1.00958C142.591 1.00425 143.262 1.00296 143.932 1.00573L143.936 0.00573424ZM139.892 0.0379107C139.217 0.0514411 138.542 0.0690456 137.868 0.0907175L137.9 1.0902C138.57 1.06866 139.241 1.05116 139.912 1.03771L139.892 0.0379107ZM135.846 0.167918C135.172 0.197707 134.499 0.231549 133.827 0.269432L133.883 1.26785C134.552 1.23019 135.221 1.19655 135.89 1.16694L135.846 0.167918ZM131.806 0.395476C131.133 0.441564 130.46 0.491699 129.788 0.545869L129.869 1.54264C130.537 1.48879 131.205 1.43896 131.875 1.39314L131.806 0.395476ZM127.773 0.720479C127.102 0.782769 126.431 0.849093 125.76 0.919435L125.864 1.91398C126.531 1.84406 127.198 1.77813 127.866 1.7162L127.773 0.720479ZM123.748 1.14278C123.078 1.22124 122.409 1.30372 121.741 1.39021L121.869 2.38194C122.533 2.29598 123.199 2.21399 123.865 2.13599L123.748 1.14278ZM119.737 1.66172C119.068 1.75636 118.401 1.85501 117.734 1.95765L117.886 2.946C118.549 2.84398 119.213 2.74592 119.877 2.65184L119.737 1.66172ZM115.736 2.27752C115.071 2.38813 114.407 2.50272 113.743 2.62127L113.919 3.60568C114.579 3.48783 115.239 3.37393 115.9 3.26398L115.736 2.27752ZM111.753 2.98922C111.091 3.11588 110.429 3.2465 109.768 3.38106L109.968 4.36095C110.624 4.22719 111.282 4.09735 111.941 3.97144L111.753 2.98922ZM107.788 3.79661C107.129 3.93913 106.471 4.0856 105.813 4.236L106.037 5.21081C106.69 5.0613 107.344 4.91571 108 4.77403L107.788 3.79661ZM103.844 4.69922C103.188 4.85755 102.533 5.0198 101.88 5.18596L102.126 6.15513C102.776 5.98996 103.427 5.82867 104.078 5.67128L103.844 4.69922ZM99.9224 5.69621C99.2707 5.87029 98.62 6.04828 97.9705 6.23014L98.2402 7.1931C98.8858 7.01231 99.5326 6.83539 100.18 6.66234L99.9224 5.69621ZM96.0255 6.7874C95.3784 6.97703 94.7324 7.17054 94.0876 7.36791L94.3803 8.32411C95.0212 8.12791 95.6634 7.93556 96.3067 7.74705L96.0255 6.7874ZM92.1565 7.97175C91.514 8.1769 90.8727 8.38591 90.2328 8.59875L90.5484 9.54764C91.1845 9.33606 91.822 9.1283 92.4606 8.92437L92.1565 7.97175ZM88.3168 9.24877C87.6795 9.46928 87.0435 9.69361 86.4089 9.92176L86.7472 10.8628C87.378 10.636 88.0103 10.413 88.6438 10.1938L88.3168 9.24877ZM84.5091 10.6176C83.8772 10.8534 83.2468 11.0929 82.6177 11.3363L82.9785 12.2689C83.6038 12.027 84.2305 11.7889 84.8587 11.5545L84.5091 10.6176ZM80.7351 12.0776C80.1092 12.3285 79.4848 12.5831 78.8618 12.8414L79.2449 13.7651C79.8642 13.5083 80.4849 13.2552 81.1071 13.0059L80.7351 12.0776ZM76.9976 13.6278C76.3777 13.8936 75.7594 14.1632 75.1427 14.4366L75.5479 15.3508C76.1609 15.0791 76.7756 14.8111 77.3918 14.5468L76.9976 13.6278ZM73.2983 15.2673C72.6851 15.5479 72.0736 15.8323 71.4638 16.1203L71.8908 17.0245C72.4971 16.7382 73.1049 16.4556 73.7144 16.1766L73.2983 15.2673ZM69.6392 16.9955C69.033 17.2907 68.4285 17.5897 67.8257 17.8923L68.2744 18.786C68.8736 18.4852 69.4745 18.188 70.0771 17.8945L69.6392 16.9955ZM66.0234 18.8107C65.4244 19.1206 64.8271 19.434 64.2316 19.7511L64.7017 20.6338C65.2936 20.3185 65.8873 20.0069 66.4828 19.699L66.0234 18.8107ZM62.4512 20.7131C61.8601 21.0371 61.2709 21.3646 60.6836 21.6958L61.1747 22.5669C61.7586 22.2377 62.3443 21.9121 62.9318 21.59L62.4512 20.7131ZM58.9271 22.7001C58.3435 23.0385 57.7619 23.3805 57.1821 23.7261L57.6941 24.5851C58.2704 24.2416 58.8486 23.9016 59.4287 23.5652L58.9271 22.7001ZM55.4513 24.7719C54.8764 25.124 54.3035 25.4797 53.7326 25.8389L54.2651 26.6853C54.8326 26.3282 55.4021 25.9747 55.9736 25.6247L55.4513 24.7719ZM52.0259 26.9271C51.4597 27.293 50.8955 27.6624 50.3333 28.0353L50.8861 28.8686C51.4449 28.4979 52.0058 28.1307 52.5686 27.767L52.0259 26.9271ZM48.6548 29.1634C48.0974 29.5429 47.5421 29.926 46.9889 30.3125L47.5616 31.1322C48.1115 30.748 48.6635 30.3672 49.2176 29.99L48.6548 29.1634ZM45.3365 31.4819C44.789 31.8743 44.2437 32.2702 43.7005 32.6696L44.2929 33.4753C44.8328 33.0783 45.3749 32.6847 45.9191 32.2946L45.3365 31.4819ZM42.0777 33.878C41.539 34.2842 41.0024 34.6938 40.4682 35.1069L41.0799 35.898C41.6109 35.4874 42.1442 35.0802 42.6797 34.6764L42.0777 33.878ZM38.8763 36.3531C38.3481 36.7717 37.8223 37.1937 37.2988 37.6191L37.9294 38.3952C38.4498 37.9724 38.9725 37.5529 39.4974 37.1368L38.8763 36.3531ZM35.7352 38.9052C35.2173 39.3366 34.7016 39.7713 34.1884 40.2094L34.8375 40.97C35.3477 40.5346 35.8603 40.1025 36.3752 39.6737L35.7352 38.9052ZM32.6585 41.5311C32.151 41.975 31.6458 42.4222 31.1431 42.8727L31.8105 43.6174C32.3102 43.1696 32.8123 42.7251 33.3168 42.2838L32.6585 41.5311ZM29.643 44.2335C29.1471 44.6888 28.6538 45.1473 28.1629 45.6091L28.8481 46.3374C29.336 45.8784 29.8265 45.4226 30.3193 44.9701L29.643 44.2335ZM26.6978 47.0041C26.2119 47.4724 25.7286 47.9439 25.2478 48.4186L25.9504 49.1302C26.4283 48.6583 26.9088 48.1896 27.3917 47.7242L26.6978 47.0041ZM23.8178 49.8478C23.3443 50.3268 22.8734 50.8089 22.405 51.2942L23.1246 51.9886C23.5902 51.5062 24.0583 51.0269 24.5289 50.5508L23.8178 49.8478ZM21.0079 52.7597C20.5455 53.2506 20.0858 53.7446 19.6287 54.2418L20.3649 54.9186C20.8192 54.4244 21.2762 53.9333 21.7358 53.4453L21.0079 52.7597ZM18.2703 55.7374C17.8201 56.2391 17.3727 56.7438 16.9279 57.2517L17.6802 57.9105C18.1223 57.4057 18.5671 56.9039 19.0146 56.4053L18.2703 55.7374ZM15.6018 58.7844C15.1647 59.2959 14.7304 59.8104 14.2987 60.3279L15.0667 60.9684C15.4957 60.4539 15.9275 59.9425 16.362 59.4341L15.6018 58.7844ZM13.013 61.8885C12.5871 62.4118 12.1641 62.938 11.7439 63.4673L12.527 64.0891C12.9448 63.563 13.3653 63.0399 13.7886 62.5197L13.013 61.8885ZM10.4951 65.0596C10.0832 65.5915 9.67398 66.1264 9.26765 66.6642L10.0655 67.267C10.4694 66.7324 10.8762 66.2007 11.2857 65.672L10.4951 65.0596ZM8.05722 68.2865C7.6566 68.8302 7.25887 69.3768 6.86404 69.9263L7.67615 70.5098C8.06866 69.9635 8.46403 69.4201 8.86228 68.8797L8.05722 68.2865ZM5.69628 71.5724C5.30996 72.1239 4.92653 72.6782 4.54604 73.2354L5.37188 73.7994C5.75013 73.2454 6.13129 72.6943 6.51532 72.1461L5.69628 71.5724ZM3.41337 74.9157C3.22602 75.1973 3.03941 75.4795 2.85356 75.7625L3.68937 76.3115C3.87415 76.0302 4.05965 75.7496 4.2459 75.4697L3.41337 74.9157ZM217.126 14.5359C216.87 13.0856 215.486 12.1178 214.036 12.3741C212.586 12.6304 211.618 14.0139 211.874 15.4642C212.13 16.9145 213.514 17.8823 214.964 17.626C216.414 17.3697 217.382 15.9862 217.126 14.5359ZM194.536 8.57364L194.383 9.04959L194.536 8.57364ZM5.89744 75.5729C5.64111 74.1226 4.25763 73.1547 2.80734 73.411C1.35706 73.6673 0.389166 75.0508 0.645494 76.5011C0.901822 77.9514 2.2853 78.9193 3.73559 78.6629C5.18587 78.4066 6.15377 77.0231 5.89744 75.5729ZM214.653 14.5241L213.655 14.2028L213.349 15.1547L214.347 15.476L214.653 14.5241ZM211.659 13.5601L209.662 12.9175L209.356 13.8694L211.352 14.512L211.659 13.5601ZM207.666 12.2749L205.67 11.6322L205.363 12.5841L207.36 13.2268L207.666 12.2749ZM203.673 10.9896L201.677 10.3469L201.37 11.2988L203.367 11.9415L203.673 10.9896ZM199.681 9.7043L197.684 9.06165L197.378 10.0136L199.374 10.6562L199.681 9.7043ZM195.688 8.41901L194.69 8.0977L194.383 9.04959L195.381 9.37091L195.688 8.41901ZM194.69 8.0977C194.367 7.99398 194.045 7.89129 193.723 7.78961L193.422 8.74333C193.743 8.8444 194.063 8.94649 194.383 9.04959L194.69 8.0977ZM191.786 7.19179C191.141 6.99659 190.494 6.80546 189.847 6.61837L189.57 7.579C190.213 7.76498 190.855 7.95498 191.497 8.14903L191.786 7.19179ZM187.905 6.06924C187.253 5.88901 186.6 5.71288 185.947 5.54084L185.693 6.50785C186.342 6.67887 186.991 6.85396 187.639 7.03312L187.905 6.06924ZM183.987 5.03699C183.333 4.87312 182.679 4.71333 182.024 4.5576L181.793 5.53045C182.444 5.68524 183.094 5.84409 183.744 6.00698L183.987 5.03699ZM180.053 4.10109C179.394 3.95259 178.734 3.80819 178.074 3.6679L177.866 4.64603C178.522 4.78549 179.178 4.92903 179.833 5.07665L180.053 4.10109ZM176.094 3.25928C175.433 3.12708 174.772 2.99898 174.111 2.87494L173.926 3.8578C174.584 3.9811 175.241 4.10844 175.898 4.23985L176.094 3.25928ZM172.117 2.51333C171.452 2.3969 170.786 2.28459 170.121 2.17636L169.961 3.16339C170.622 3.27097 171.283 3.38261 171.944 3.49835L172.117 2.51333ZM168.125 1.86398C167.457 1.76359 166.789 1.66731 166.121 1.57513L165.985 2.56575C166.649 2.65737 167.313 2.75308 167.976 2.85287L168.125 1.86398ZM164.114 1.31051C163.445 1.2264 162.775 1.14641 162.106 1.0705L161.994 2.06412C162.659 2.13958 163.324 2.2191 163.989 2.3027L164.114 1.31051ZM160.096 0.854767C159.424 0.786734 158.752 0.722814 158.079 0.663L157.991 1.65906C158.659 1.71852 159.327 1.78206 159.995 1.84968L160.096 0.854767ZM156.063 0.495852C155.391 0.444231 154.72 0.396702 154.048 0.353254L153.983 1.35117C154.651 1.39436 155.319 1.4416 155.987 1.49291L156.063 0.495852ZM152.026 0.234755C151.352 0.19934 150.678 0.168025 150.004 0.1408L149.964 1.13998C150.633 1.16705 151.303 1.19817 151.973 1.23338L152.026 0.234755ZM147.984 0.071368C147.309 0.0522688 146.635 0.037257 145.961 0.0263266L145.945 1.02619C146.614 1.03706 147.285 1.05198 147.955 1.07097L147.984 0.071368ZM143.936 0.00573424C143.262 0.00295461 142.588 0.00424976 141.914 0.00961438L141.922 1.00958C142.591 1.00425 143.262 1.00296 143.932 1.00573L143.936 0.00573424ZM139.892 0.0379107C139.217 0.0514411 138.542 0.0690456 137.868 0.0907175L137.9 1.0902C138.57 1.06866 139.241 1.05116 139.912 1.03771L139.892 0.0379107ZM135.846 0.167918C135.172 0.197707 134.499 0.231549 133.827 0.269432L133.883 1.26785C134.552 1.23019 135.221 1.19655 135.89 1.16694L135.846 0.167918ZM131.806 0.395476C131.133 0.441564 130.46 0.491699 129.788 0.545869L129.869 1.54264C130.537 1.48879 131.205 1.43896 131.875 1.39314L131.806 0.395476ZM127.773 0.720479C127.102 0.782769 126.431 0.849093 125.76 0.919435L125.864 1.91398C126.531 1.84406 127.198 1.77813 127.866 1.7162L127.773 0.720479ZM123.748 1.14278C123.078 1.22124 122.409 1.30372 121.741 1.39021L121.869 2.38194C122.533 2.29598 123.199 2.21399 123.865 2.13599L123.748 1.14278ZM119.737 1.66172C119.068 1.75636 118.401 1.85501 117.734 1.95765L117.886 2.946C118.549 2.84398 119.213 2.74592 119.877 2.65184L119.737 1.66172ZM115.736 2.27752C115.071 2.38813 114.407 2.50272 113.743 2.62127L113.919 3.60568C114.579 3.48783 115.239 3.37393 115.9 3.26398L115.736 2.27752ZM111.753 2.98922C111.091 3.11588 110.429 3.2465 109.768 3.38106L109.968 4.36095C110.624 4.22719 111.282 4.09735 111.941 3.97144L111.753 2.98922ZM107.788 3.79661C107.129 3.93913 106.471 4.0856 105.813 4.236L106.037 5.21081C106.69 5.0613 107.344 4.91571 108 4.77403L107.788 3.79661ZM103.844 4.69922C103.188 4.85755 102.533 5.0198 101.88 5.18596L102.126 6.15513C102.776 5.98996 103.427 5.82867 104.078 5.67128L103.844 4.69922ZM99.9224 5.69621C99.2707 5.87029 98.62 6.04828 97.9705 6.23014L98.2402 7.1931C98.8858 7.01231 99.5326 6.83539 100.18 6.66234L99.9224 5.69621ZM96.0255 6.7874C95.3784 6.97703 94.7324 7.17054 94.0876 7.36791L94.3803 8.32411C95.0212 8.12791 95.6634 7.93556 96.3067 7.74705L96.0255 6.7874ZM92.1565 7.97175C91.514 8.1769 90.8727 8.38591 90.2328 8.59875L90.5484 9.54764C91.1845 9.33606 91.822 9.1283 92.4606 8.92437L92.1565 7.97175ZM88.3168 9.24877C87.6795 9.46928 87.0435 9.69361 86.4089 9.92176L86.7472 10.8628C87.378 10.636 88.0103 10.413 88.6438 10.1938L88.3168 9.24877ZM84.5091 10.6176C83.8772 10.8534 83.2468 11.0929 82.6177 11.3363L82.9785 12.2689C83.6038 12.027 84.2305 11.7889 84.8587 11.5545L84.5091 10.6176ZM80.7351 12.0776C80.1092 12.3285 79.4848 12.5831 78.8618 12.8414L79.2449 13.7651C79.8642 13.5083 80.4849 13.2552 81.1071 13.0059L80.7351 12.0776ZM76.9976 13.6278C76.3777 13.8936 75.7594 14.1632 75.1427 14.4366L75.5479 15.3508C76.1609 15.0791 76.7756 14.8111 77.3918 14.5468L76.9976 13.6278ZM73.2983 15.2673C72.6851 15.5479 72.0736 15.8323 71.4638 16.1203L71.8908 17.0245C72.4971 16.7382 73.1049 16.4556 73.7144 16.1766L73.2983 15.2673ZM69.6392 16.9955C69.033 17.2907 68.4285 17.5897 67.8257 17.8923L68.2744 18.786C68.8736 18.4852 69.4745 18.188 70.0771 17.8945L69.6392 16.9955ZM66.0234 18.8107C65.4244 19.1206 64.8271 19.434 64.2316 19.7511L64.7017 20.6338C65.2936 20.3185 65.8873 20.0069 66.4828 19.699L66.0234 18.8107ZM62.4512 20.7131C61.8601 21.0371 61.2709 21.3646 60.6836 21.6958L61.1747 22.5669C61.7586 22.2377 62.3443 21.9121 62.9318 21.59L62.4512 20.7131ZM58.9271 22.7001C58.3435 23.0385 57.7619 23.3805 57.1821 23.7261L57.6941 24.5851C58.2704 24.2416 58.8486 23.9016 59.4287 23.5652L58.9271 22.7001ZM55.4513 24.7719C54.8764 25.124 54.3035 25.4797 53.7326 25.8389L54.2651 26.6853C54.8326 26.3282 55.4021 25.9747 55.9736 25.6247L55.4513 24.7719ZM52.0259 26.9271C51.4597 27.293 50.8955 27.6624 50.3333 28.0353L50.8861 28.8686C51.4449 28.4979 52.0058 28.1307 52.5686 27.767L52.0259 26.9271ZM48.6548 29.1634C48.0974 29.5429 47.5421 29.926 46.9889 30.3125L47.5616 31.1322C48.1115 30.748 48.6635 30.3672 49.2176 29.99L48.6548 29.1634ZM45.3365 31.4819C44.789 31.8743 44.2437 32.2702 43.7005 32.6696L44.2929 33.4753C44.8328 33.0783 45.3749 32.6847 45.9191 32.2946L45.3365 31.4819ZM42.0777 33.878C41.539 34.2842 41.0024 34.6938 40.4682 35.1069L41.0799 35.898C41.6109 35.4874 42.1442 35.0802 42.6797 34.6764L42.0777 33.878ZM38.8763 36.3531C38.3481 36.7717 37.8223 37.1937 37.2988 37.6191L37.9294 38.3952C38.4498 37.9724 38.9725 37.5529 39.4974 37.1368L38.8763 36.3531ZM35.7352 38.9052C35.2173 39.3366 34.7016 39.7713 34.1884 40.2094L34.8375 40.97C35.3477 40.5346 35.8603 40.1025 36.3752 39.6737L35.7352 38.9052ZM32.6585 41.5311C32.151 41.975 31.6458 42.4222 31.1431 42.8727L31.8105 43.6174C32.3102 43.1696 32.8123 42.7251 33.3168 42.2838L32.6585 41.5311ZM29.643 44.2335C29.1471 44.6888 28.6538 45.1473 28.1629 45.6091L28.8481 46.3374C29.336 45.8784 29.8265 45.4226 30.3193 44.9701L29.643 44.2335ZM26.6978 47.0041C26.2119 47.4724 25.7286 47.9439 25.2478 48.4186L25.9504 49.1302C26.4283 48.6583 26.9088 48.1896 27.3917 47.7242L26.6978 47.0041ZM23.8178 49.8478C23.3443 50.3268 22.8734 50.8089 22.405 51.2942L23.1246 51.9886C23.5902 51.5062 24.0583 51.0269 24.5289 50.5508L23.8178 49.8478ZM21.0079 52.7597C20.5455 53.2506 20.0858 53.7446 19.6287 54.2418L20.3649 54.9186C20.8192 54.4244 21.2762 53.9333 21.7358 53.4453L21.0079 52.7597ZM18.2703 55.7374C17.8201 56.2391 17.3727 56.7438 16.9279 57.2517L17.6802 57.9105C18.1223 57.4057 18.5671 56.9039 19.0146 56.4053L18.2703 55.7374ZM15.6018 58.7844C15.1647 59.2959 14.7304 59.8104 14.2987 60.3279L15.0667 60.9684C15.4957 60.4539 15.9275 59.9425 16.362 59.4341L15.6018 58.7844ZM13.013 61.8885C12.5871 62.4118 12.1641 62.938 11.7439 63.4673L12.527 64.0891C12.9448 63.563 13.3653 63.0399 13.7886 62.5197L13.013 61.8885ZM10.4951 65.0596C10.0832 65.5915 9.67398 66.1264 9.26765 66.6642L10.0655 67.267C10.4694 66.7324 10.8762 66.2007 11.2857 65.672L10.4951 65.0596ZM8.05722 68.2865C7.6566 68.8302 7.25887 69.3768 6.86404 69.9263L7.67615 70.5098C8.06866 69.9635 8.46403 69.4201 8.86228 68.8797L8.05722 68.2865ZM5.69628 71.5724C5.30996 72.1239 4.92653 72.6782 4.54604 73.2354L5.37188 73.7994C5.75013 73.2454 6.13129 72.6943 6.51532 72.1461L5.69628 71.5724ZM3.41337 74.9157C3.22602 75.1973 3.03941 75.4795 2.85356 75.7625L3.68937 76.3115C3.87415 76.0302 4.05965 75.7496 4.2459 75.4697L3.41337 74.9157Z" fill="#E23744"/>
</svg>
