<?xml version="1.0" standalone="no"?>
<!DOCTYPE svg PUBLIC "-//W3C//DTD SVG 20010904//EN"
 "http://www.w3.org/TR/2001/REC-SVG-20010904/DTD/svg10.dtd">
<svg version="1.0" xmlns="http://www.w3.org/2000/svg"
 width="1810.000000pt" height="762.000000pt" viewBox="0 0 1810.000000 762.000000"
 preserveAspectRatio="xMidYMid meet">
<metadata>
Created by potrace 1.16, written by Peter Selinger 2001-2019
</metadata>
<g transform="translate(0.000000,762.000000) scale(0.100000,-0.100000)"
fill="#FF0000" stroke="none">
<path d="M8333 6498 c-40 -4 -109 -21 -155 -39 -103 -40 -194 -121 -236 -210
l-27 -57 -35 18 c-153 77 -339 84 -466 16 l-63 -33 -11 33 c-24 72 -156 154
-249 154 -60 0 -127 -28 -180 -76 -91 -82 -121 -161 -97 -253 27 -104 115
-189 274 -262 l82 -39 0 -103 c0 -57 3 -137 6 -178 l7 -75 81 9 c103 11 383 2
546 -18 252 -30 546 -94 833 -183 l127 -39 0 144 0 143 54 108 c60 120 96 215
126 331 36 142 23 237 -49 349 -125 193 -326 285 -568 260z"/>
<path d="M3230 6166 l0 -43 79 -7 c163 -13 233 -59 268 -173 17 -54 18 -132
18 -1238 0 -1256 1 -1229 -47 -1310 -10 -17 -30 -40 -46 -52 -36 -27 -123 -53
-176 -53 -23 0 -58 -3 -78 -6 -37 -6 -38 -8 -38 -50 l0 -44 620 0 620 0 0 44
0 44 -77 6 c-188 15 -267 42 -310 108 -55 82 -56 96 -60 721 l-5 577 959 -2
958 -3 3 -445 c3 -476 -7 -716 -33 -791 -39 -111 -115 -147 -357 -165 l-78 -6
0 -44 0 -44 620 0 620 0 0 44 c0 42 -1 44 -37 50 -21 3 -54 6 -74 6 -114 0
-204 63 -236 165 -17 57 -18 123 -18 1255 l0 1195 22 56 c42 102 110 142 263
155 l80 7 0 43 0 44 -605 0 -605 0 0 -44 0 -43 100 -7 c161 -11 237 -42 282
-115 46 -73 49 -117 55 -648 l6 -503 -962 0 -961 0 0 428 c1 606 10 682 85
758 49 49 119 71 253 80 l92 7 0 43 0 44 -600 0 -600 0 0 -44z"/>
<path d="M7285 5348 c-49 -5 -92 -11 -94 -14 -6 -6 34 -293 42 -301 3 -2 89 5
191 16 532 61 1027 44 1329 -45 15 -5 17 2 17 49 l0 55 -133 50 c-259 98 -510
159 -779 187 -159 16 -429 18 -573 3z"/>
<path d="M9662 5055 c-153 -73 -372 -197 -372 -210 0 -18 25 -31 76 -39 62
-11 103 -40 127 -94 22 -47 22 -52 22 -637 0 -544 -1 -595 -18 -650 -31 -98
-105 -155 -204 -155 -51 0 -63 -9 -63 -46 l0 -34 456 0 455 0 -3 38 -3 37 -66
7 c-109 10 -163 52 -196 151 -15 46 -18 113 -21 613 l-3 560 79 76 c183 174
358 251 530 233 201 -22 307 -134 342 -365 8 -52 10 -230 8 -570 -5 -549 -6
-561 -70 -633 -37 -41 -105 -67 -173 -67 -64 0 -75 -7 -75 -46 l0 -34 481 0
480 0 -3 38 -3 37 -70 7 c-124 11 -178 50 -212 151 -15 46 -18 115 -21 639
l-3 587 58 46 c80 64 171 113 272 148 76 27 99 31 206 31 199 1 298 -46 363
-175 59 -118 64 -168 60 -731 -4 -452 -6 -509 -22 -557 -30 -91 -98 -141 -193
-141 -51 0 -63 -9 -63 -46 l0 -34 446 0 445 0 -3 38 -3 37 -60 6 c-103 10
-160 55 -191 152 -15 45 -18 126 -24 597 -8 581 -8 583 -61 707 -50 118 -163
231 -280 281 -124 54 -331 68 -466 33 -130 -34 -229 -89 -413 -230 -47 -35
-90 -69 -97 -74 -8 -6 -19 6 -37 41 -54 107 -166 202 -294 250 -82 30 -269 41
-378 23 -146 -26 -295 -106 -469 -254 l-90 -76 -5 168 c-4 122 -9 173 -19 185
-22 26 -79 19 -159 -19z"/>
<path d="M12990 4992 c0 -36 2 -38 48 -54 68 -25 124 -77 164 -155 44 -83 678
-1635 678 -1658 0 -45 -130 -414 -182 -520 -54 -108 -79 -125 -243 -165 -138
-34 -203 -62 -244 -104 -64 -66 -48 -181 32 -234 36 -24 50 -27 116 -26 96 1
158 30 240 114 69 70 127 162 191 307 26 60 217 567 425 1128 208 561 397
1061 420 1110 55 117 92 165 148 195 43 23 47 28 47 62 l0 38 -290 0 -290 0 0
-38 c0 -39 0 -39 54 -51 35 -8 68 -24 94 -47 64 -54 71 -125 27 -282 -39 -145
-351 -1081 -359 -1079 -4 2 -23 53 -42 115 -44 145 -116 336 -247 654 -171
415 -193 505 -140 576 25 34 98 72 139 72 52 0 64 9 64 46 l0 34 -425 0 -425
0 0 -38z"/>
<path d="M7463 4895 c-115 -35 -240 -155 -316 -301 -61 -120 -77 -187 -84
-374 -10 -271 21 -469 97 -621 93 -183 295 -340 525 -408 173 -50 315 -61 471
-36 301 49 530 201 669 444 102 177 141 365 132 631 -6 180 -27 301 -67 385
-60 125 -173 224 -309 270 l-73 25 -501 -1 c-386 0 -512 -3 -544 -14z m998
-406 c16 -11 39 -39 50 -61 20 -39 20 -53 16 -307 -3 -236 -6 -274 -25 -335
-31 -101 -75 -188 -118 -236 -99 -109 -361 -178 -519 -136 -169 45 -278 144
-340 311 -21 55 -30 107 -42 240 -17 200 -15 467 5 487 9 10 129 19 455 34
243 12 453 22 465 23 13 0 37 -8 53 -20z"/>
<path d="M8811 2988 c-38 -20 -71 -92 -71 -155 l0 -53 -45 0 c-43 0 -45 -1
-45 -30 0 -29 2 -30 45 -30 l45 0 0 -230 0 -230 30 0 30 0 0 230 0 230 80 0
80 0 0 30 0 30 -80 0 -80 0 0 54 c0 45 4 58 27 80 23 23 34 27 68 24 22 -3 48
-8 57 -12 26 -12 45 31 24 52 -21 21 -132 28 -165 10z"/>
<path d="M9720 2630 l0 -370 35 0 35 0 0 370 0 370 -35 0 -35 0 0 -370z"/>
<path d="M10250 2630 l0 -370 35 0 35 0 0 370 0 370 -35 0 -35 0 0 -370z"/>
<path d="M3943 2781 c-79 -20 -154 -87 -182 -164 -14 -37 -14 -140 0 -188 27
-89 119 -158 222 -166 109 -9 197 32 254 119 24 35 29 54 32 125 3 74 0 90
-23 138 -27 54 -75 100 -130 123 -37 16 -132 23 -173 13z m143 -72 c64 -20
114 -101 114 -187 0 -62 -19 -108 -62 -148 -124 -116 -318 -26 -318 147 0 97
59 178 146 198 40 9 64 7 120 -10z"/>
<path d="M5292 2779 c-49 -9 -107 -42 -116 -64 -11 -29 -26 -14 -26 25 0 38
-2 40 -30 40 l-30 0 0 -260 0 -260 35 0 35 0 0 163 c0 151 2 167 23 208 25 48
89 89 139 89 25 0 28 3 28 35 0 19 -3 35 -7 34 -5 -1 -27 -5 -51 -10z"/>
<path d="M5938 2777 c-48 -14 -118 -60 -118 -78 0 -6 -4 -7 -10 -4 -5 3 -10
24 -10 46 0 37 -2 39 -30 39 l-30 0 0 -355 0 -355 35 0 35 0 0 142 0 142 33
-31 c49 -48 106 -66 185 -61 76 6 115 23 162 70 50 49 70 102 70 184 0 86 -12
126 -56 181 -60 73 -170 106 -266 80z m179 -93 c53 -41 76 -95 71 -174 -4 -85
-33 -130 -102 -165 -55 -27 -82 -30 -139 -14 -122 33 -177 197 -104 308 59 89
188 110 274 45z"/>
<path d="M6540 2775 c-103 -32 -170 -129 -170 -245 0 -80 13 -122 53 -173 87
-112 279 -131 388 -40 l30 26 -22 23 -22 23 -29 -24 c-30 -25 -86 -45 -128
-45 -75 0 -160 54 -186 117 -28 66 -36 63 202 63 l217 0 -6 60 c-9 106 -74
186 -173 216 -58 17 -95 17 -154 -1z m182 -81 c39 -25 78 -87 78 -124 0 -19
-5 -20 -180 -20 -175 0 -180 1 -180 20 0 34 37 97 71 121 63 44 145 46 211 3z"/>
<path d="M7108 2780 c-49 -9 -129 -47 -134 -65 -2 -5 3 -18 11 -29 13 -17 16
-17 69 9 66 32 153 37 202 12 35 -18 64 -70 64 -115 l0 -29 -123 -5 c-136 -5
-184 -21 -220 -69 -26 -37 -26 -121 0 -158 62 -85 238 -96 320 -19 l23 21 0
-36 c0 -36 1 -37 36 -37 l35 0 -3 203 c-3 182 -5 205 -24 237 -38 66 -145 100
-256 80z m212 -322 c0 -79 -72 -141 -166 -141 -92 0 -146 55 -122 123 16 48
48 59 176 60 l112 0 0 -42z"/>
<path d="M7727 2780 c-122 -31 -196 -124 -197 -249 0 -80 15 -130 52 -175 88
-107 269 -129 372 -44 42 34 45 50 13 71 -22 14 -25 14 -51 -14 -59 -62 -174
-63 -246 -2 -95 79 -92 244 4 318 68 52 187 47 245 -9 28 -27 30 -27 55 -11
26 17 26 18 9 39 -28 32 -45 46 -78 61 -41 18 -132 26 -178 15z"/>
<path d="M8250 2775 c-103 -32 -170 -129 -170 -245 0 -80 13 -122 53 -173 87
-112 279 -131 388 -40 l30 26 -22 23 -22 23 -29 -24 c-30 -25 -86 -45 -128
-45 -75 0 -160 54 -186 117 -28 66 -36 63 202 63 l217 0 -6 60 c-9 106 -74
186 -173 216 -58 17 -95 17 -154 -1z m182 -81 c39 -25 78 -87 78 -124 0 -19
-5 -20 -180 -20 -175 0 -180 1 -180 20 0 34 37 97 71 121 63 44 145 46 211 3z"/>
<path d="M11782 2780 c-49 -10 -107 -43 -116 -65 -11 -29 -26 -14 -26 25 0 38
-2 40 -30 40 l-30 0 0 -260 0 -260 35 0 35 0 0 163 c0 184 11 225 71 268 47
33 150 39 196 10 59 -37 67 -66 71 -263 l4 -178 35 0 35 0 -4 188 c-3 171 -5
191 -27 235 -39 80 -140 119 -249 97z"/>
<path d="M12405 2781 c-83 -21 -152 -77 -181 -147 -21 -51 -18 -160 7 -210 40
-84 123 -136 219 -138 81 -1 124 11 175 49 l45 35 0 -43 c0 -59 -16 -111 -45
-145 -52 -62 -189 -69 -295 -15 l-60 32 -16 -25 c-21 -31 -10 -44 59 -75 36
-16 78 -24 138 -27 160 -8 240 36 274 150 12 41 15 106 15 305 l0 253 -35 0
c-34 0 -35 -1 -35 -41 l0 -41 -32 28 c-18 15 -46 33 -63 40 -40 16 -133 25
-170 15z m192 -97 c99 -75 95 -232 -7 -300 -79 -53 -205 -42 -261 22 -49 56
-63 139 -34 206 19 48 77 96 122 103 21 4 42 8 48 9 25 6 101 -17 132 -40z"/>
<path d="M3184 2772 c2 -4 55 -120 116 -257 l111 -250 -23 -48 c-12 -27 -33
-58 -47 -68 -29 -23 -81 -24 -123 -3 -30 15 -32 15 -45 -2 -21 -28 -16 -40 23
-59 27 -13 54 -16 102 -13 99 6 111 23 275 390 75 169 137 310 137 313 0 3
-15 5 -34 5 l-33 0 -94 -215 c-52 -118 -96 -214 -99 -214 -3 0 -47 96 -99 214
l-94 215 -39 0 c-22 0 -37 -3 -34 -8z"/>
<path d="M4412 2593 c4 -215 15 -251 88 -299 76 -51 214 -42 279 17 18 16 34
29 37 29 2 0 4 -18 4 -40 0 -39 1 -40 35 -40 l35 0 0 260 0 260 -35 0 -35 0 0
-135 c0 -209 -20 -268 -104 -306 -53 -24 -100 -24 -152 1 -69 34 -78 64 -82
268 l-4 172 -35 0 -35 0 4 -187z"/>
<path d="M9052 2593 c4 -215 15 -251 88 -299 76 -51 214 -42 279 17 18 16 34
29 37 29 2 0 4 -18 4 -40 0 -39 1 -40 35 -40 l35 0 0 260 0 260 -35 0 -35 0 0
-135 c0 -209 -20 -268 -104 -306 -53 -24 -100 -24 -152 1 -69 34 -78 64 -82
268 l-4 172 -35 0 -35 0 4 -187z"/>
<path d="M10520 2520 l0 -260 35 0 35 0 0 260 0 260 -35 0 -35 0 0 -260z"/>
<path d="M10727 2678 c25 -57 76 -173 114 -258 l68 -155 38 -3 38 -2 107 242
c59 134 110 251 113 261 6 14 1 17 -27 17 l-35 0 -93 -210 c-52 -116 -96 -213
-100 -215 -3 -2 -48 93 -99 211 l-94 214 -38 0 -38 0 46 -102z"/>
<path d="M11320 2520 l0 -260 35 0 35 0 0 260 0 260 -35 0 -35 0 0 -260z"/>
</g>
</svg>
