<svg xmlns="http://www.w3.org/2000/svg" width="1638" height="640" viewBox="0 0 1638 640">
<g>
<path d="M 255.16,521.54 L 253.69,521.18 L 250.94,520.17 L 250.31,519.92 L 249.30,519.41 L 248.28,518.71 L 247.94,518.37 L 247.54,517.76 L 247.38,517.45 L 247.40,516.72 L 247.46,516.32 L 247.92,515.21 L 249.18,512.84 L 249.62,512.04 L 250.41,510.83 L 250.79,510.29 L 251.49,509.55 L 251.84,509.24 L 252.51,508.92 L 253.55,508.86 L 253.82,508.90 L 254.67,509.03 L 255.14,509.10 L 256.28,509.25 L 260.11,509.69 L 261.14,509.80 L 262.63,509.86 L 263.31,509.86 L 264.31,509.64 L 264.78,509.49 L 265.58,508.89 L 266.86,507.45 L 267.45,506.70 L 268.37,505.17 L 268.57,504.81 L 268.83,504.19 L 269.00,503.49 L 269.00,503.41 L 268.78,502.73 L 268.63,502.31 L 268.14,501.01 L 267.86,500.29 L 267.13,498.45 L 266.74,497.47 L 265.79,495.17 L 265.30,493.96 L 264.18,491.25 L 263.59,489.86 L 262.32,486.83 L 258.08,476.88 L 247.16,451.50 L 254.31,451.20 L 255.70,451.14 L 257.82,451.13 L 258.79,451.14 L 260.20,451.29 L 260.84,451.39 L 261.71,451.72 L 262.59,452.46 L 262.67,452.56 L 262.95,453.09 L 263.11,453.39 L 263.54,454.28 L 263.77,454.77 L 264.32,455.98 L 264.61,456.62 L 265.27,458.10 L 265.95,459.65 L 267.55,463.36 L 270.11,469.50 L 270.99,471.63 L 272.64,475.52 L 273.43,477.37 L 274.80,480.44 L 275.12,481.14 L 275.67,482.34 L 275.93,482.90 L 276.36,483.77 L 276.56,484.16 L 276.85,484.68 L 277.10,484.99 L 277.14,485.00 L 277.36,484.65 L 277.49,484.43 L 277.87,483.68 L 278.09,483.25 L 278.61,482.13 L 278.90,481.52 L 279.55,480.08 L 279.89,479.32 L 280.64,477.60 L 281.03,476.71 L 281.87,474.75 L 284.60,468.25 L 291.50,451.50 L 298.88,451.20 L 300.31,451.15 L 302.42,451.12 L 303.36,451.13 L 304.60,451.24 L 305.13,451.32 L 305.64,451.59 L 305.74,452.20 L 305.67,452.38 L 305.30,453.26 L 305.09,453.77 L 304.48,455.18 L 304.16,455.93 L 303.40,457.68 L 302.17,460.50 L 301.96,460.98 L 301.37,462.34 L 301.04,463.09 L 300.26,464.91 L 299.84,465.88 L 298.89,468.09 L 298.40,469.24 L 297.33,471.76 L 296.22,474.34 L 293.77,480.10 L 289.99,489.00 L 288.74,491.96 L 286.25,497.64 L 285.65,499.02 L 284.47,501.64 L 283.89,502.91 L 282.81,505.28 L 282.28,506.42 L 281.32,508.46 L 280.85,509.43 L 280.04,511.08 L 279.66,511.84 L 279.03,513.03 L 278.33,514.21 L 277.76,515.04 L 276.41,516.52 L 275.70,517.22 L 274.10,518.46 L 273.27,519.04 L 271.45,520.02 L 270.51,520.48 L 268.52,521.19 L 267.50,521.51 L 265.37,521.94 L 264.28,522.12 L 262.05,522.26 L 260.92,522.30 L 258.63,522.13 L 257.48,522.01 M 1229.88,521.53 L 1228.37,521.22 L 1225.00,520.23 L 1223.32,519.70 L 1220.17,518.49 L 1219.43,518.18 L 1218.11,517.59 L 1217.49,517.29 L 1216.47,516.74 L 1216.01,516.48 L 1215.39,516.01 L 1215.00,515.45 L 1215.00,515.32 L 1215.22,514.72 L 1215.36,514.37 L 1215.79,513.40 L 1216.27,512.38 L 1217.58,509.86 L 1218.24,508.61 L 1219.47,506.50 L 1219.74,506.04 L 1220.16,505.41 L 1220.55,505.00 L 1220.69,505.00 L 1221.57,505.41 L 1223.29,506.40 L 1223.89,506.78 L 1225.51,507.58 L 1227.75,508.46 L 1228.27,508.62 L 1228.96,508.76 L 1229.24,508.80 L 1229.51,508.63 L 1229.59,508.50 L 1229.49,507.92 L 1229.00,506.50 L 1228.73,505.78 L 1228.29,503.97 L 1228.00,501.58 L 1228.00,501.17 L 1227.73,500.36 L 1227.55,499.96 L 1226.88,499.13 L 1226.49,498.70 L 1225.36,497.79 L 1223.10,496.26 L 1221.41,495.21 L 1218.60,492.56 L 1217.29,491.16 L 1215.25,487.96 L 1214.33,486.30 L 1213.07,482.72 L 1212.54,480.90 L 1212.08,477.11 L 1211.95,475.21 L 1212.29,471.41 L 1212.56,469.53 L 1213.73,465.88 L 1214.41,464.10 L 1216.41,460.80 L 1220.35,456.43 L 1221.47,455.47 L 1223.91,453.87 L 1225.16,453.12 L 1227.78,451.97 L 1229.11,451.44 L 1231.86,450.72 L 1233.24,450.42 L 1236.04,450.15 L 1237.44,450.08 L 1240.22,450.26 L 1241.60,450.41 L 1244.30,451.05 L 1245.63,451.42 L 1248.18,452.52 L 1251.75,454.69 L 1255.00,457.10 L 1255.00,454.05 L 1255.00,451.00 L 1262.00,451.00 L 1269.00,451.00 L 1269.00,463.00 L 1269.00,464.65 L 1269.03,467.40 L 1269.06,468.68 L 1269.16,470.72 L 1269.22,471.66 L 1269.42,473.04 L 1269.54,473.66 L 1269.86,474.44 L 1270.04,474.76 L 1270.51,474.99 L 1270.77,475.04 L 1271.43,474.75 L 1271.78,474.56 L 1272.65,473.82 L 1274.20,472.25 L 1275.06,471.34 L 1276.68,469.06 L 1277.09,468.43 L 1277.92,466.98 L 1278.35,466.22 L 1279.23,464.46 L 1279.68,463.53 L 1280.64,461.39 L 1281.14,460.26 L 1282.22,457.68 L 1282.77,456.32 L 1283.99,453.23 L 1286.02,447.95 L 1287.60,443.77 L 1290.40,435.95 L 1291.06,434.07 L 1292.27,430.52 L 1292.85,428.79 L 1293.88,425.62 L 1294.37,424.08 L 1295.19,421.35 L 1295.58,420.04 L 1296.17,417.82 L 1296.44,416.78 L 1296.79,415.15 L 1297.00,413.45 L 1297.00,413.37 L 1296.83,412.80 L 1296.72,412.45 L 1296.33,411.36 L 1296.11,410.76 L 1295.53,409.18 L 1295.21,408.33 L 1294.44,406.31 L 1294.03,405.24 L 1293.09,402.79 L 1292.59,401.52 L 1291.49,398.69 L 1290.92,397.23 L 1289.67,394.05 L 1289.02,392.42 L 1287.64,388.92 L 1286.94,387.14 L 1285.43,383.36 L 1284.67,381.44 L 1283.07,377.41 L 1281.44,373.33 L 1277.92,364.56 L 1276.13,360.10 L 1272.38,350.78 L 1270.49,346.08 L 1266.61,336.48 L 1264.66,331.67 L 1260.76,322.06 L 1258.82,317.28 L 1255.01,307.94 L 1253.13,303.33 L 1249.52,294.52 L 1247.75,290.21 L 1244.45,282.21 L 1243.65,280.27 L 1242.13,276.59 L 1241.39,274.79 L 1239.98,271.41 L 1239.29,269.76 L 1238.01,266.71 L 1237.39,265.23 L 1236.26,262.54 L 1235.71,261.24 L 1234.73,258.95 L 1234.26,257.86 L 1233.46,256.00 L 1233.08,255.12 L 1232.45,253.73 L 1231.74,252.19 L 1230.84,250.34 L 1228.43,246.79 L 1227.15,245.06 L 1224.20,241.96 L 1222.68,240.50 L 1219.48,238.14 L 1218.68,237.61 L 1217.08,236.74 L 1214.73,235.75 L 1213.77,235.43 L 1212.44,234.89 L 1211.85,234.61 L 1211.12,233.98 L 1210.81,233.64 L 1210.48,232.69 L 1210.19,230.67 L 1209.88,227.00 L 1251.94,227.00 L 1294.00,227.00 L 1294.00,230.39 L 1294.00,231.21 L 1293.90,232.31 L 1293.82,232.80 L 1293.35,233.40 L 1293.04,233.66 L 1291.93,234.00 L 1289.25,234.44 L 1287.31,234.71 L 1284.21,235.35 L 1282.77,235.69 L 1280.45,236.55 L 1279.36,237.02 L 1277.54,238.24 L 1275.05,240.60 L 1274.37,241.37 L 1273.43,242.64 L 1273.02,243.26 L 1272.51,244.54 L 1272.30,245.22 L 1272.10,246.91 L 1272.00,250.35 L 1272.00,251.34 L 1272.13,253.34 L 1272.23,254.37 L 1272.60,256.61 L 1272.83,257.78 L 1273.53,260.48 L 1273.92,261.91 L 1275.02,265.30 L 1275.32,266.21 L 1276.02,268.18 L 1276.38,269.20 L 1277.20,271.43 L 1277.63,272.57 L 1278.58,275.08 L 1279.08,276.37 L 1280.18,279.19 L 1280.75,280.64 L 1282.01,283.79 L 1282.65,285.41 L 1284.07,288.93 L 1284.81,290.74 L 1286.40,294.65 L 1289.00,301.00 L 1290.51,304.69 L 1293.37,311.74 L 1294.76,315.20 L 1297.37,321.76 L 1298.64,324.98 L 1301.00,331.04 L 1302.14,334.01 L 1304.23,339.55 L 1305.25,342.26 L 1307.07,347.26 L 1307.95,349.69 L 1309.50,354.13 L 1310.23,356.28 L 1311.50,360.14 L 1313.07,365.25 L 1313.37,366.32 L 1313.98,368.26 L 1314.28,369.18 L 1314.82,370.72 L 1315.08,371.42 L 1315.50,372.37 L 1315.90,372.98 L 1315.92,372.97 L 1316.03,372.78 L 1316.09,372.65 L 1316.28,372.20 L 1316.48,371.69 L 1317.12,369.99 L 1317.47,369.03 L 1318.37,366.50 L 1318.85,365.13 L 1319.98,361.88 L 1320.57,360.17 L 1321.89,356.28 L 1322.57,354.28 L 1324.06,349.88 L 1324.82,347.62 L 1326.42,342.80 L 1328.93,335.23 L 1330.40,330.76 L 1333.10,322.56 L 1334.41,318.57 L 1336.80,311.27 L 1337.95,307.72 L 1340.05,301.26 L 1341.06,298.13 L 1342.88,292.46 L 1343.75,289.71 L 1345.31,284.76 L 1346.06,282.37 L 1347.38,278.08 L 1348.00,276.02 L 1349.09,272.33 L 1349.61,270.56 L 1350.48,267.43 L 1350.89,265.92 L 1351.58,263.27 L 1351.89,262.00 L 1352.39,259.77 L 1352.62,258.71 L 1352.96,256.85 L 1353.11,255.96 L 1353.31,254.41 L 1353.47,252.93 L 1353.42,250.63 L 1352.92,247.71 L 1352.53,246.26 L 1351.15,243.67 L 1350.36,242.43 L 1348.22,240.27 L 1347.05,239.25 L 1344.18,237.56 L 1339.10,235.61 L 1338.35,235.40 L 1337.13,235.04 L 1336.55,234.87 L 1335.63,234.57 L 1334.78,234.27 L 1333.82,233.66 L 1333.43,233.33 L 1333.12,232.44 L 1333.00,230.45 L 1333.00,227.00 L 1362.00,227.00 L 1391.00,227.00 L 1391.00,230.48 L 1391.00,231.23 L 1390.87,232.36 L 1390.77,232.88 L 1390.34,233.69 L 1390.08,234.07 L 1389.20,234.76 L 1387.25,235.89 L 1386.11,236.48 L 1383.84,238.09 L 1382.71,238.96 L 1380.54,241.08 L 1379.47,242.20 L 1377.45,244.75 L 1374.68,249.00 L 1374.22,249.81 L 1373.26,251.66 L 1373.01,252.18 L 1372.45,253.39 L 1372.15,254.03 L 1371.49,255.57 L 1371.13,256.38 L 1370.33,258.34 L 1369.90,259.37 L 1368.91,261.84 L 1368.40,263.15 L 1367.20,266.22 L 1366.57,267.85 L 1365.12,271.63 L 1364.36,273.61 L 1362.63,278.19 L 1361.72,280.58 L 1359.66,286.05 L 1359.13,287.48 L 1357.99,290.51 L 1357.41,292.06 L 1356.18,295.36 L 1355.55,297.04 L 1354.23,300.59 L 1353.55,302.41 L 1352.12,306.25 L 1351.39,308.20 L 1349.86,312.33 L 1349.07,314.43 L 1347.43,318.87 L 1346.59,321.12 L 1344.83,325.87 L 1343.93,328.28 L 1342.05,333.35 L 1341.09,335.93 L 1339.09,341.34 L 1338.07,344.09 L 1335.93,349.85 L 1334.85,352.78 L 1332.58,358.90 L 1329.03,368.50 L 1326.61,375.03 L 1321.88,387.77 L 1319.54,394.07 L 1315.06,406.12 L 1313.96,409.07 L 1311.82,414.81 L 1310.76,417.64 L 1308.72,423.11 L 1307.72,425.80 L 1305.79,430.96 L 1304.84,433.50 L 1303.04,438.31 L 1302.15,440.68 L 1300.49,445.12 L 1299.67,447.28 L 1298.16,451.31 L 1297.42,453.27 L 1296.08,456.85 L 1295.42,458.58 L 1294.25,461.67 L 1293.69,463.15 L 1292.71,465.73 L 1292.25,466.94 L 1291.47,468.96 L 1291.11,469.90 L 1290.55,471.33 L 1289.98,472.76 L 1289.13,474.81 L 1287.36,478.70 L 1286.46,480.62 L 1284.58,484.29 L 1282.66,487.93 L 1278.31,494.78 L 1277.17,496.48 L 1274.71,499.84 L 1273.44,501.52 L 1270.72,504.88 L 1269.32,506.57 L 1266.29,510.00 L 1261.37,515.26 L 1260.63,516.03 L 1258.82,517.39 L 1257.87,518.04 L 1255.67,519.18 L 1254.53,519.71 L 1252.03,520.60 L 1250.74,521.01 L 1247.99,521.63 L 1246.58,521.91 L 1243.65,522.27 L 1242.17,522.41 L 1239.12,522.47 L 1237.59,522.47 L 1234.50,522.24 L 1232.95,522.08 M 1245.31,482.94 L 1246.38,482.57 L 1248.38,481.84 L 1249.34,481.49 L 1250.98,480.86 L 1251.74,480.56 L 1252.83,480.10 L 1253.66,479.68 L 1253.80,479.54 L 1254.00,479.02 L 1254.09,478.73 L 1254.18,477.98 L 1254.26,477.17 L 1254.13,475.12 L 1254.02,474.06 L 1253.56,471.91 L 1252.58,469.16 L 1252.06,468.15 L 1250.62,466.49 L 1249.84,465.72 L 1247.90,464.56 L 1246.87,464.04 L 1244.45,463.39 L 1240.30,463.01 L 1239.32,463.01 L 1237.48,463.23 L 1236.58,463.37 L 1234.93,463.87 L 1234.13,464.14 L 1232.68,464.89 L 1231.98,465.29 L 1230.76,466.27 L 1230.17,466.79 L 1229.20,467.98 L 1228.74,468.60 L 1228.04,469.99 L 1227.72,470.71 L 1227.31,472.28 L 1227.04,474.80 L 1227.03,475.55 L 1227.26,477.10 L 1227.41,477.86 L 1227.91,479.38 L 1228.19,480.12 L 1228.91,481.53 L 1229.30,482.21 L 1230.17,483.43 L 1230.62,484.02 L 1231.60,484.98 L 1232.09,485.43 L 1233.10,486.06 L 1233.61,486.33 L 1234.60,486.55 L 1235.99,486.34 L 1236.20,486.25 L 1237.19,485.86 L 1237.77,485.64 L 1239.35,485.06 L 1240.19,484.75 L 1242.16,484.05 L 1243.17,483.69 M 518.00,486.00 L 518.00,451.00 L 525.00,451.00 L 525.85,451.00 L 527.25,451.01 L 527.91,451.01 L 528.96,451.05 L 529.45,451.07 L 530.20,451.15 L 530.55,451.20 L 531.05,451.34 L 531.50,451.50 L 531.86,452.08 L 532.00,453.50 L 532.00,454.14 L 532.23,455.08 L 532.38,455.48 L 532.83,455.89 L 533.08,456.03 L 533.65,455.87 L 534.55,454.92 L 534.71,454.66 L 535.34,454.12 L 535.69,453.85 L 536.66,453.29 L 537.69,452.73 L 540.42,451.69 L 541.83,451.21 L 544.81,450.48 L 548.83,450.00 L 549.50,450.00 L 551.03,450.19 L 551.82,450.32 L 553.54,450.73 L 555.29,451.20 L 558.95,452.63 L 560.76,453.41 L 564.02,455.25 L 564.78,455.72 L 566.09,456.68 L 567.69,458.12 L 568.47,458.97 L 569.84,461.03 L 570.49,462.10 L 571.58,464.52 L 572.09,465.77 L 572.89,468.45 L 573.25,469.81 L 573.73,472.63 L 573.94,474.05 L 574.10,476.91 L 574.14,478.33 L 573.96,481.12 L 573.82,482.49 L 573.29,485.09 L 572.06,488.67 L 571.59,489.72 L 570.34,491.74 L 569.68,492.73 L 568.10,494.61 L 567.28,495.52 L 565.43,497.21 L 564.48,498.03 L 562.44,499.49 L 561.40,500.18 L 559.22,501.37 L 558.11,501.92 L 555.86,502.79 L 554.73,503.18 L 552.47,503.69 L 549.14,503.99 L 548.14,503.99 L 545.80,503.65 L 544.60,503.43 L 542.11,502.73 L 540.88,502.34 L 538.59,501.40 L 535.75,499.82 L 533.00,497.86 L 533.00,509.43 L 533.00,521.00 L 525.50,521.00 L 518.00,521.00 L 518.00,486.00 M 554.64,487.69 L 555.41,486.99 L 556.51,485.79 L 557.01,485.21 L 557.69,484.02 L 557.98,483.41 L 558.37,481.95 L 558.76,479.14 L 558.88,477.91 L 558.83,475.61 L 558.76,474.49 L 558.35,472.43 L 558.10,471.44 L 557.35,469.65 L 556.94,468.79 L 555.86,467.29 L 555.29,466.58 L 553.91,465.39 L 553.18,464.84 L 551.52,463.99 L 550.65,463.62 L 548.72,463.13 L 545.55,462.83 L 544.54,462.83 L 542.70,463.07 L 541.81,463.23 L 540.20,463.77 L 539.42,464.08 L 538.05,464.93 L 537.39,465.38 L 536.26,466.52 L 535.73,467.12 L 534.85,468.53 L 534.45,469.28 L 533.83,470.96 L 533.56,471.84 L 533.21,473.79 L 533.00,477.00 L 533.00,478.17 L 533.20,480.28 L 533.34,481.30 L 533.82,483.11 L 534.09,483.98 L 534.84,485.50 L 535.25,486.22 L 536.28,487.45 L 536.83,488.03 L 538.14,488.97 L 538.83,489.41 L 540.42,490.06 L 541.25,490.35 L 543.13,490.72 L 546.26,490.96 L 547.27,490.97 L 548.84,490.86 L 549.58,490.77 L 550.82,490.39 L 551.42,490.15 L 552.61,489.39 L 553.23,488.94 M 327.73,502.05 L 325.69,501.40 L 322.29,499.86 L 320.69,499.04 L 318.03,497.06 L 316.77,495.99 L 314.66,493.39 L 311.90,488.62 L 311.07,486.88 L 309.98,483.33 L 309.53,481.56 L 309.15,478.01 L 309.04,476.25 L 309.35,472.79 L 309.58,471.08 L 310.53,467.80 L 311.09,466.20 L 312.66,463.19 L 313.52,461.73 L 315.68,459.08 L 316.83,457.81 L 319.54,455.61 L 324.21,452.92 L 325.20,452.47 L 327.34,451.75 L 328.43,451.42 L 330.71,450.94 L 333.01,450.51 L 337.81,450.35 L 340.21,450.39 L 344.86,451.15 L 346.00,451.39 L 348.17,452.06 L 351.23,453.31 L 352.92,454.15 L 355.91,456.19 L 357.33,457.26 L 359.74,459.74 L 360.88,461.02 L 362.70,463.85 L 363.54,465.30 L 364.74,468.40 L 365.27,469.98 L 365.83,473.29 L 366.03,474.96 L 365.92,478.38 L 365.78,480.10 L 364.98,483.57 L 362.97,488.74 L 362.07,490.55 L 360.07,493.52 L 359.03,494.92 L 356.60,497.19 L 355.31,498.26 L 352.26,499.99 L 346.79,502.14 L 344.95,502.72 L 341.74,503.43 L 340.19,503.71 L 337.27,503.85 L 335.81,503.84 L 332.80,503.39 L 331.24,503.09 M 345.10,488.71 L 345.96,488.13 L 347.40,486.67 L 348.06,485.90 L 349.10,484.13 L 349.58,483.21 L 350.22,481.22 L 350.49,480.21 L 350.72,478.10 L 350.79,477.04 L 350.61,474.91 L 350.47,473.84 L 349.88,471.78 L 349.53,470.76 L 348.52,468.87 L 346.51,466.31 L 345.78,465.58 L 344.58,464.55 L 344.00,464.10 L 342.84,463.55 L 342.23,463.32 L 340.74,463.10 L 337.73,463.00 L 336.15,463.00 L 333.44,463.45 L 332.15,463.75 L 330.00,464.83 L 328.99,465.46 L 327.35,467.21 L 325.38,470.64 L 325.03,471.48 L 324.55,473.14 L 324.34,473.97 L 324.13,475.60 L 323.99,477.21 L 324.44,480.24 L 324.78,481.72 L 326.06,484.35 L 326.79,485.60 L 328.74,487.67 L 329.78,488.63 L 332.23,490.00 L 333.51,490.59 L 336.29,491.10 L 337.00,491.17 L 338.45,491.12 L 339.18,491.07 L 340.66,490.75 L 341.40,490.56 L 342.89,489.96 L 343.63,489.62 M 391.90,502.44 L 390.67,502.07 L 388.37,500.95 L 387.25,500.33 L 385.20,498.76 L 384.21,497.92 L 382.44,495.93 L 380.16,492.52 L 379.82,491.91 L 379.32,490.20 L 379.20,489.71 L 379.01,488.51 L 378.92,487.87 L 378.76,486.32 L 378.69,485.49 L 378.56,483.51 L 378.50,482.45 L 378.41,479.97 L 378.36,478.65 L 378.28,475.58 L 378.17,470.25 L 377.85,451.00 L 385.42,451.00 L 393.00,451.00 L 393.00,466.53 L 393.00,468.88 L 393.05,472.86 L 393.08,474.74 L 393.23,477.87 L 393.31,479.35 L 393.59,481.75 L 393.74,482.88 L 394.17,484.67 L 394.41,485.49 L 395.04,486.78 L 395.38,487.37 L 396.23,488.27 L 396.69,488.68 L 397.80,489.31 L 399.79,490.06 L 400.56,490.29 L 401.87,490.57 L 402.51,490.68 L 403.68,490.74 L 404.27,490.74 L 405.45,490.56 L 407.41,490.03 L 408.19,489.77 L 409.51,489.22 L 410.13,488.92 L 411.16,488.20 L 411.64,487.80 L 412.41,486.79 L 412.77,486.24 L 413.34,484.82 L 413.60,484.05 L 414.00,482.09 L 414.18,481.04 L 414.46,478.43 L 414.58,477.03 L 414.77,473.64 L 415.00,467.55 L 415.50,451.50 L 422.75,451.21 L 430.00,450.91 L 430.00,476.96 L 430.00,503.00 L 423.00,503.00 L 422.15,503.00 L 420.75,502.99 L 420.09,502.99 L 419.04,502.95 L 418.55,502.93 L 417.80,502.85 L 417.45,502.80 L 416.95,502.66 L 416.50,502.50 L 416.14,501.92 L 416.00,500.50 L 416.00,499.80 L 415.79,498.85 L 415.65,498.45 L 415.20,498.11 L 414.94,498.02 L 414.27,498.30 L 413.06,499.43 L 412.86,499.66 L 412.19,500.17 L 411.81,500.42 L 410.83,500.94 L 409.79,501.46 L 407.17,502.42 L 405.82,502.87 L 403.08,503.53 L 399.57,503.93 L 399.15,503.92 L 398.02,503.79 L 397.42,503.71 L 396.05,503.46 L 394.66,503.20 M 605.00,503.08 L 603.26,502.68 L 600.05,501.58 L 598.50,500.99 L 595.68,499.52 L 594.32,498.75 L 591.91,496.93 L 590.76,495.98 L 588.77,493.83 L 587.83,492.72 L 586.28,490.27 L 585.57,489.00 L 584.48,486.26 L 583.99,484.86 L 583.38,481.85 L 583.01,477.05 L 583.01,475.75 L 583.26,473.24 L 583.42,472.00 L 583.97,469.64 L 584.28,468.48 L 585.11,466.29 L 585.56,465.21 L 586.64,463.20 L 587.22,462.21 L 588.54,460.39 L 589.23,459.50 L 590.77,457.88 L 591.56,457.09 L 593.28,455.68 L 594.17,455.01 L 596.06,453.83 L 597.03,453.28 L 599.07,452.34 L 600.11,451.91 L 602.27,451.23 L 603.37,450.92 L 605.63,450.51 L 606.77,450.34 L 609.12,450.21 L 610.29,450.18 L 612.69,450.35 L 613.90,450.47 L 616.33,450.94 L 617.55,451.22 L 619.99,452.01 L 623.64,453.57 L 625.40,454.45 L 628.46,456.70 L 629.91,457.91 L 632.32,460.77 L 633.45,462.28 L 635.18,465.73 L 637.00,471.50 L 637.26,472.74 L 637.66,474.74 L 637.84,475.67 L 637.95,477.15 L 637.95,477.82 L 637.60,478.84 L 637.35,479.30 L 636.37,479.95 L 635.78,480.23 L 633.99,480.59 L 632.98,480.75 L 630.21,480.90 L 629.45,480.93 L 627.71,480.97 L 626.81,480.98 L 624.78,481.00 L 623.72,481.00 L 621.36,481.00 L 617.43,481.00 L 614.76,481.00 L 609.89,481.05 L 608.73,481.06 L 606.59,481.10 L 605.55,481.12 L 603.71,481.17 L 602.83,481.20 L 601.33,481.26 L 600.63,481.29 L 599.53,481.36 L 599.04,481.40 L 598.40,481.48 L 598.00,481.60 L 598.00,482.04 L 598.61,483.36 L 599.00,484.06 L 600.16,485.63 L 600.79,486.42 L 602.21,487.87 L 604.31,489.52 L 604.84,489.84 L 606.12,490.34 L 606.79,490.57 L 608.29,490.90 L 609.83,491.20 L 613.25,491.30 L 614.96,491.27 L 618.25,490.73 L 619.04,490.55 L 620.49,490.08 L 622.38,489.20 L 625.78,487.19 L 629.53,491.03 L 630.08,491.59 L 631.00,492.69 L 631.43,493.22 L 632.07,494.20 L 632.35,494.67 L 632.66,495.45 L 632.71,496.32 L 632.49,496.89 L 631.37,498.01 L 630.71,498.56 L 628.87,499.60 L 627.87,500.10 L 625.48,501.01 L 624.23,501.44 L 621.48,502.18 L 620.08,502.52 L 617.15,503.04 L 615.69,503.27 L 612.78,503.53 L 611.34,503.62 L 608.63,503.56 L 607.32,503.49 M 623.00,470.40 L 623.00,470.18 L 622.73,469.51 L 622.56,469.15 L 622.00,468.27 L 619.60,465.40 L 618.83,464.63 L 617.61,463.57 L 617.01,463.11 L 615.83,462.55 L 615.21,462.32 L 613.66,462.10 L 610.50,462.00 L 609.21,462.00 L 607.34,462.10 L 606.48,462.18 L 605.17,462.55 L 604.55,462.78 L 603.39,463.57 L 601.40,465.40 L 600.65,466.15 L 599.49,467.40 L 598.96,467.99 L 598.29,468.96 L 598.02,469.41 L 597.89,470.12 L 597.89,470.45 L 598.36,470.95 L 598.67,471.17 L 599.77,471.49 L 600.41,471.63 L 602.22,471.81 L 603.22,471.89 L 605.77,471.96 L 610.50,472.00 L 611.85,472.00 L 614.14,471.99 L 615.22,471.98 L 617.01,471.94 L 617.84,471.92 L 619.20,471.86 L 619.82,471.82 L 620.80,471.72 L 621.24,471.66 L 621.89,471.51 L 622.18,471.43 L 622.56,471.23 L 622.89,471.02 M 656.17,502.51 L 655.24,502.22 L 653.55,501.52 L 652.74,501.15 L 651.28,500.29 L 650.58,499.84 L 649.36,498.81 L 648.78,498.28 L 647.79,497.09 L 647.33,496.48 L 646.57,495.13 L 646.22,494.44 L 645.70,492.93 L 645.47,492.15 L 645.18,490.48 L 645.00,487.80 L 645.00,486.53 L 645.34,484.25 L 645.56,483.15 L 646.35,481.20 L 646.80,480.27 L 648.08,478.64 L 648.78,477.86 L 650.56,476.53 L 651.51,475.90 L 653.82,474.86 L 655.04,474.37 L 657.90,473.60 L 659.40,473.25 L 662.83,472.74 L 668.66,472.24 L 670.08,472.17 L 672.67,471.97 L 673.91,471.87 L 675.96,471.63 L 676.90,471.51 L 678.18,471.26 L 678.45,471.20 L 678.79,471.08 L 679.00,470.90 L 679.00,470.28 L 678.53,468.88 L 678.22,468.18 L 677.25,466.77 L 676.72,466.09 L 675.41,464.86 L 673.21,463.43 L 672.70,463.19 L 671.50,462.82 L 670.88,462.66 L 669.48,462.44 L 668.05,462.26 L 664.87,462.32 L 663.26,462.42 L 660.11,463.03 L 655.96,464.52 L 655.45,464.78 L 654.60,465.20 L 654.20,465.39 L 653.53,465.64 L 652.89,465.84 L 651.96,465.66 L 651.52,465.45 L 650.68,464.30 L 650.46,463.94 L 649.97,463.02 L 649.11,461.30 L 648.84,460.74 L 648.40,459.80 L 648.19,459.36 L 647.87,458.64 L 647.59,457.96 L 647.41,457.07 L 647.38,456.68 L 647.68,456.12 L 648.64,455.27 L 649.01,455.01 L 650.12,454.43 L 650.74,454.14 L 652.25,453.55 L 653.85,452.95 L 657.73,451.83 L 659.70,451.31 L 663.61,450.52 L 664.54,450.36 L 666.25,450.14 L 668.45,450.00 L 670.06,450.00 L 673.55,450.45 L 675.31,450.75 L 678.78,451.69 L 680.47,452.21 L 683.50,453.50 L 684.20,453.84 L 685.46,454.56 L 687.05,455.69 L 687.79,456.31 L 689.02,457.46 L 689.60,458.03 L 690.54,459.21 L 690.98,459.81 L 691.68,461.19 L 692.01,461.92 L 692.50,463.68 L 692.73,464.61 L 693.06,466.91 L 693.22,468.15 L 693.43,471.17 L 693.53,472.78 L 693.66,476.69 L 693.69,477.73 L 693.75,480.01 L 693.83,483.75 L 694.18,503.00 L 687.09,503.00 L 686.23,503.00 L 684.81,502.99 L 684.14,502.99 L 683.07,502.95 L 682.58,502.93 L 681.82,502.85 L 681.47,502.80 L 680.96,502.66 L 680.50,502.50 L 680.14,501.92 L 680.00,500.50 L 680.00,499.75 L 679.80,498.78 L 679.66,498.39 L 679.17,498.11 L 678.89,498.06 L 678.11,498.49 L 676.59,499.90 L 676.36,500.15 L 675.68,500.66 L 675.30,500.92 L 674.37,501.41 L 673.39,501.89 L 670.95,502.72 L 669.69,503.11 L 667.03,503.64 L 663.31,503.93 L 662.92,503.92 L 661.88,503.80 L 661.32,503.72 L 660.05,503.49 L 658.76,503.23 M 671.20,492.96 L 672.31,492.65 L 674.29,491.57 L 675.23,490.97 L 676.76,489.43 L 677.46,488.62 L 678.41,486.78 L 679.00,483.87 L 679.00,483.15 L 678.90,482.21 L 678.79,481.81 L 678.19,481.36 L 677.99,481.27 L 677.42,481.15 L 677.11,481.10 L 676.28,481.05 L 675.83,481.02 L 674.68,481.01 L 672.57,481.00 L 670.63,481.00 L 667.51,481.24 L 666.07,481.40 L 663.85,481.98 L 662.85,482.32 L 661.44,483.28 L 660.12,485.20 L 659.81,486.05 L 659.62,487.57 L 659.60,488.31 L 660.00,489.60 L 660.28,490.21 L 661.26,491.27 L 663.40,492.57 L 664.35,492.98 L 665.59,493.50 L 666.15,493.72 L 667.05,493.85 L 667.51,493.88 L 668.63,493.66 L 668.95,493.58 L 669.74,493.37 L 670.16,493.25 M 727.73,502.97 L 726.02,502.54 L 722.81,501.29 L 721.25,500.60 L 718.39,498.89 L 717.01,497.98 L 714.55,495.86 L 713.38,494.75 L 711.35,492.29 L 710.40,491.02 L 708.86,488.27 L 708.16,486.86 L 707.15,483.89 L 706.71,482.37 L 706.27,479.23 L 706.30,474.39 L 706.42,473.26 L 706.85,471.08 L 707.10,470.01 L 707.78,467.96 L 708.15,466.95 L 709.07,465.04 L 709.56,464.10 L 710.69,462.33 L 711.87,460.60 L 714.79,457.62 L 716.34,456.22 L 719.88,453.95 L 721.72,452.92 L 725.74,451.45 L 727.79,450.82 L 732.14,450.23 L 734.34,450.05 L 738.87,450.42 L 740.01,450.58 L 742.29,451.09 L 745.71,452.15 L 747.11,452.67 L 749.99,454.26 L 751.41,455.12 L 753.96,457.07 L 755.14,458.06 L 756.87,459.97 L 757.22,460.43 L 757.70,461.27 L 758.00,462.36 L 758.00,462.52 L 757.56,463.06 L 757.28,463.36 L 756.37,464.08 L 755.87,464.46 L 754.61,465.29 L 752.46,466.54 L 746.93,469.50 L 745.21,467.37 L 744.57,466.57 L 743.18,465.34 L 742.46,464.78 L 740.80,463.99 L 739.92,463.64 L 737.86,463.23 L 734.18,463.00 L 733.06,463.00 L 731.41,463.11 L 730.65,463.20 L 729.44,463.63 L 728.86,463.91 L 727.71,464.84 L 725.62,467.00 L 724.56,468.17 L 722.98,470.65 L 722.64,471.25 L 722.18,472.35 L 721.85,473.75 L 721.77,475.22 L 721.84,477.85 L 721.92,479.13 L 722.31,481.38 L 722.55,482.47 L 723.26,484.35 L 723.66,485.25 L 724.70,486.76 L 725.26,487.48 L 726.63,488.63 L 727.35,489.16 L 729.05,489.95 L 729.94,490.30 L 731.98,490.74 L 735.42,491.00 L 736.33,491.00 L 737.81,490.86 L 738.52,490.77 L 739.75,490.37 L 740.36,490.14 L 741.55,489.40 L 743.54,487.83 L 747.15,484.66 L 752.58,487.32 L 753.32,487.68 L 754.68,488.43 L 755.33,488.80 L 756.41,489.48 L 756.90,489.81 L 757.57,490.37 L 758.00,490.95 L 758.00,491.21 L 757.71,491.91 L 757.51,492.29 L 756.89,493.17 L 756.21,494.09 L 754.16,496.17 L 753.08,497.21 L 750.69,499.12 L 750.09,499.56 L 748.94,500.31 L 747.34,501.17 L 746.09,501.73 L 742.88,502.57 L 741.21,502.95 L 737.58,503.39 L 735.77,503.56 L 732.26,503.55 L 730.57,503.48 M 786.15,502.92 L 785.10,502.72 L 783.02,502.09 L 781.98,501.73 L 779.96,500.83 L 777.95,499.87 L 774.28,497.29 L 773.40,496.59 L 771.78,495.08 L 771.00,494.31 L 769.59,492.66 L 768.92,491.82 L 767.76,490.06 L 766.37,487.33 L 766.09,486.66 L 765.64,485.07 L 765.44,484.24 L 765.15,482.41 L 764.90,480.53 L 764.86,476.42 L 764.91,474.38 L 765.46,470.47 L 765.64,469.54 L 766.09,467.84 L 766.94,465.63 L 767.55,464.37 L 768.93,462.09 L 769.64,460.99 L 771.24,459.03 L 772.06,458.08 L 773.87,456.43 L 774.81,455.65 L 776.84,454.31 L 777.88,453.68 L 780.13,452.66 L 781.28,452.19 L 783.75,451.48 L 785.02,451.16 L 787.71,450.77 L 792.00,450.52 L 793.56,450.52 L 796.03,450.62 L 797.19,450.70 L 799.17,451.04 L 800.14,451.24 L 802.04,451.89 L 805.25,453.33 L 806.35,453.86 L 808.35,455.13 L 809.33,455.79 L 811.09,457.30 L 811.94,458.08 L 813.44,459.82 L 814.16,460.71 L 815.40,462.66 L 815.98,463.66 L 816.95,465.80 L 817.39,466.89 L 818.07,469.21 L 818.37,470.39 L 818.76,472.87 L 818.99,476.75 L 819.00,481.00 L 799.50,481.00 L 798.20,481.00 L 795.84,481.00 L 794.69,481.00 L 792.62,481.01 L 791.63,481.02 L 789.84,481.04 L 788.98,481.05 L 787.46,481.09 L 786.01,481.13 L 783.82,481.28 L 782.84,481.37 L 781.51,481.64 L 780.93,481.79 L 780.32,482.22 L 780.09,482.45 L 780.06,483.06 L 780.11,483.40 L 780.54,484.24 L 781.56,485.78 L 782.05,486.48 L 783.40,487.70 L 784.12,488.28 L 785.85,489.24 L 786.76,489.69 L 788.76,490.37 L 789.79,490.68 L 791.96,491.07 L 793.05,491.23 L 795.28,491.32 L 796.39,491.32 L 798.57,491.08 L 799.64,490.92 L 801.65,490.35 L 804.37,489.08 L 807.65,487.05 L 811.32,490.82 L 812.33,491.85 L 813.92,493.76 L 814.25,494.19 L 814.71,494.87 L 814.99,495.54 L 814.99,495.76 L 814.68,496.28 L 814.48,496.56 L 813.82,497.18 L 813.08,497.82 L 810.85,499.23 L 809.65,499.92 L 806.89,501.21 L 802.74,502.66 L 801.31,503.03 L 798.65,503.51 L 797.34,503.70 L 794.75,503.83 L 793.44,503.85 L 790.70,503.63 L 789.28,503.48 M 805.00,471.45 L 805.00,471.37 L 804.89,471.02 L 804.81,470.81 L 804.57,470.24 L 803.55,468.10 L 803.02,467.06 L 801.65,465.40 L 800.92,464.63 L 799.15,463.50 L 798.21,462.99 L 796.01,462.37 L 792.17,462.00 L 790.79,462.00 L 788.37,462.43 L 787.21,462.71 L 785.19,463.73 L 784.22,464.31 L 782.57,465.94 L 780.45,469.09 L 778.95,472.00 L 791.97,472.00 L 793.77,472.00 L 797.03,471.96 L 798.59,471.93 L 801.17,471.84 L 801.76,471.81 L 802.77,471.76 L 803.24,471.73 L 803.97,471.66 L 804.30,471.63 L 804.73,471.56 L 804.91,471.53 M 883.17,502.31 L 882.58,502.10 L 881.24,501.46 L 880.56,501.11 L 879.16,500.28 L 878.48,499.84 L 877.20,498.91 L 875.59,497.53 L 874.97,496.91 L 873.91,495.62 L 873.40,494.95 L 872.55,493.50 L 872.15,492.75 L 871.49,491.03 L 871.18,490.13 L 870.69,488.05 L 870.46,486.96 L 870.12,484.41 L 869.97,483.07 L 869.76,479.96 L 869.66,478.32 L 869.56,474.54 L 869.50,468.00 L 869.50,451.50 L 877.25,451.21 L 885.00,450.92 L 885.00,467.21 L 885.00,469.00 L 885.02,472.04 L 885.03,473.48 L 885.07,475.89 L 885.09,477.03 L 885.17,478.92 L 885.21,479.80 L 885.33,481.26 L 885.40,481.94 L 885.58,483.05 L 885.68,483.58 L 885.92,484.46 L 886.93,486.65 L 887.36,487.36 L 888.46,488.51 L 889.04,489.04 L 890.37,489.82 L 891.07,490.16 L 892.58,490.56 L 893.35,490.71 L 894.97,490.74 L 895.78,490.71 L 897.45,490.38 L 898.28,490.16 L 899.93,489.46 L 900.75,489.07 L 902.31,488.00 L 904.50,486.00 L 904.95,485.51 L 905.58,484.32 L 905.72,483.98 L 905.95,483.11 L 906.07,482.64 L 906.25,481.46 L 906.34,480.83 L 906.48,479.24 L 906.55,478.38 L 906.67,476.28 L 906.73,475.17 L 906.84,472.47 L 907.00,467.65 L 907.50,451.50 L 914.75,451.21 L 922.00,450.91 L 922.00,476.96 L 922.00,503.00 L 915.00,503.00 L 914.15,503.00 L 912.75,502.99 L 912.09,502.99 L 911.04,502.95 L 910.55,502.93 L 909.80,502.85 L 909.45,502.80 L 908.95,502.66 L 908.50,502.50 L 908.14,501.92 L 908.00,500.50 L 908.00,499.75 L 907.88,498.80 L 907.79,498.41 L 907.37,498.15 L 907.10,498.11 L 906.21,498.53 L 904.15,499.89 L 902.72,500.91 L 899.48,502.35 L 897.81,502.97 L 894.24,503.59 L 892.43,503.80 L 888.71,503.59 L 886.85,503.38 M 446.23,477.25 L 446.50,451.50 L 453.75,451.21 L 461.00,450.91 L 461.00,453.93 L 461.00,456.94 L 464.64,454.47 L 465.73,453.73 L 468.17,452.46 L 469.40,451.87 L 471.85,450.98 L 473.04,450.59 L 475.12,450.21 L 475.60,450.15 L 476.43,450.15 L 477.42,450.33 L 477.73,450.45 L 478.18,450.93 L 478.38,451.23 L 478.66,452.17 L 478.79,452.71 L 478.92,454.24 L 479.00,457.34 L 479.00,463.75 L 473.81,464.24 L 472.72,464.35 L 471.03,464.64 L 470.25,464.80 L 468.97,465.32 L 468.35,465.61 L 467.20,466.49 L 465.31,468.36 L 462.00,471.97 L 462.00,487.49 L 462.00,503.00 L 453.98,503.00 L 445.97,503.00 L 446.23,477.25 M 833.00,483.00 L 833.00,463.00 L 829.00,463.00 L 825.00,463.00 L 825.00,457.50 L 825.00,452.00 L 828.86,452.00 L 832.72,452.00 L 833.33,446.86 L 833.46,445.72 L 833.96,443.61 L 834.25,442.58 L 835.04,440.68 L 835.48,439.75 L 836.55,438.08 L 837.13,437.27 L 838.48,435.83 L 839.19,435.14 L 840.81,433.94 L 841.64,433.37 L 843.51,432.43 L 844.48,432.00 L 846.58,431.33 L 850.00,430.63 L 851.17,430.47 L 853.81,430.47 L 855.14,430.51 L 857.74,430.86 L 859.00,431.07 L 861.11,431.68 L 861.59,431.85 L 862.37,432.22 L 863.23,432.83 L 863.40,433.00 L 863.55,433.58 L 863.61,433.92 L 863.55,434.85 L 863.49,435.35 L 863.21,436.61 L 862.55,438.86 L 862.35,439.46 L 862.00,440.46 L 861.84,440.93 L 861.55,441.67 L 861.27,442.35 L 860.74,443.05 L 860.46,443.32 L 859.76,443.36 L 858.26,442.91 L 857.44,442.60 L 855.60,442.37 L 854.68,442.33 L 852.88,442.58 L 852.01,442.76 L 850.56,443.43 L 849.13,444.83 L 848.90,445.29 L 848.33,446.82 L 847.62,449.25 L 846.96,452.00 L 853.98,452.00 L 861.00,452.00 L 861.00,457.45 L 861.00,462.90 L 854.75,463.20 L 848.50,463.50 L 848.23,483.25 L 847.96,503.00 L 840.48,503.00 L 833.00,503.00 L 833.00,483.00 M 938.24,467.25 L 938.50,431.50 L 946.00,431.50 L 953.50,431.50 L 953.73,457.00 L 953.76,460.51 L 953.77,467.71 L 953.77,471.28 L 953.72,478.02 L 953.71,479.64 L 953.67,482.66 L 953.64,484.12 L 953.59,486.76 L 953.56,488.02 L 953.50,490.17 L 953.38,492.75 L 952.81,503.00 L 945.39,503.00 L 937.97,503.00 L 938.24,467.25 M 996.24,467.25 L 996.50,431.50 L 1004.00,431.50 L 1011.50,431.50 L 1011.76,467.25 L 1012.03,503.00 L 1004.00,503.00 L 995.97,503.00 L 996.24,467.25 M 1026.45,501.73 L 1026.42,501.64 L 1026.36,500.98 L 1026.33,500.57 L 1026.28,499.31 L 1026.26,498.61 L 1026.22,496.83 L 1026.21,495.88 L 1026.19,493.64 L 1026.18,492.48 L 1026.17,489.86 L 1026.16,488.51 L 1026.17,485.59 L 1026.23,475.98 L 1026.50,451.50 L 1033.75,451.21 L 1041.00,450.91 L 1041.00,476.96 L 1041.00,503.00 L 1033.97,503.00 L 1032.78,503.00 L 1030.83,502.92 L 1029.93,502.87 L 1028.55,502.69 L 1027.93,502.58 L 1027.09,502.29 L 1026.75,502.13 M 1069.59,500.17 L 1069.48,499.97 L 1069.19,499.36 L 1069.04,499.03 L 1068.65,498.18 L 1068.24,497.28 L 1067.21,494.92 L 1066.67,493.67 L 1065.46,490.83 L 1063.60,486.38 L 1062.99,484.88 L 1061.50,481.29 L 1060.73,479.43 L 1059.08,475.46 L 1058.25,473.48 L 1056.64,469.63 L 1054.48,464.50 L 1053.84,462.99 L 1052.64,460.13 L 1052.05,458.75 L 1051.05,456.36 L 1050.58,455.25 L 1049.88,453.60 L 1049.73,453.25 L 1049.51,452.73 L 1049.31,452.25 L 1049.21,452.01 L 1049.47,451.66 L 1049.69,451.50 L 1050.67,451.27 L 1051.26,451.17 L 1053.08,451.06 L 1056.89,451.00 L 1058.06,451.00 L 1060.13,451.07 L 1061.10,451.12 L 1062.69,451.28 L 1063.42,451.37 L 1064.39,451.59 L 1065.00,451.99 L 1065.00,452.09 L 1065.15,452.62 L 1065.25,452.94 L 1065.57,453.86 L 1065.75,454.37 L 1066.23,455.62 L 1066.48,456.29 L 1067.08,457.81 L 1067.70,459.40 L 1069.22,463.13 L 1070.01,465.05 L 1071.70,469.09 L 1072.55,471.10 L 1074.21,474.97 L 1075.02,476.84 L 1076.45,480.07 L 1076.78,480.81 L 1077.37,482.09 L 1077.65,482.69 L 1078.12,483.65 L 1078.33,484.08 L 1078.64,484.65 L 1078.91,485.00 L 1078.95,485.00 L 1079.11,484.79 L 1079.21,484.65 L 1079.47,484.19 L 1079.76,483.67 L 1080.57,481.99 L 1081.01,481.06 L 1082.04,478.73 L 1083.72,474.75 L 1084.22,473.53 L 1085.14,471.28 L 1085.59,470.19 L 1086.41,468.19 L 1087.21,466.25 L 1088.53,463.06 L 1089.15,461.57 L 1090.15,459.17 L 1090.62,458.06 L 1091.37,456.34 L 1091.71,455.55 L 1092.25,454.38 L 1092.50,453.85 L 1092.88,453.10 L 1093.73,451.87 L 1093.86,451.74 L 1094.63,451.52 L 1095.08,451.42 L 1096.35,451.27 L 1097.04,451.21 L 1098.66,451.16 L 1101.30,451.20 L 1107.91,451.50 L 1097.12,477.00 L 1086.34,502.50 L 1078.72,502.79 L 1077.78,502.83 L 1076.22,502.88 L 1075.50,502.90 L 1074.32,502.91 L 1073.78,502.90 L 1072.91,502.85 L 1072.51,502.81 L 1071.89,502.67 L 1071.31,502.50 L 1070.58,501.83 L 1070.25,501.43 M 1116.00,477.00 L 1116.00,451.00 L 1123.50,451.00 L 1131.00,451.00 L 1131.00,477.00 L 1131.00,503.00 L 1123.50,503.00 L 1116.00,503.00 L 1116.00,477.00 M 1146.00,477.00 L 1146.00,451.00 L 1153.00,451.00 L 1153.86,451.00 L 1155.27,451.01 L 1155.93,451.01 L 1156.99,451.05 L 1157.48,451.07 L 1158.23,451.15 L 1158.57,451.20 L 1159.07,451.34 L 1159.52,451.51 L 1159.87,452.11 L 1160.00,453.58 L 1160.00,454.29 L 1160.22,455.29 L 1160.29,455.49 L 1160.46,455.73 L 1160.75,455.78 L 1161.89,455.20 L 1163.85,454.22 L 1164.79,453.76 L 1166.42,452.99 L 1167.20,452.64 L 1168.59,452.07 L 1169.26,451.80 L 1170.49,451.40 L 1171.69,451.03 L 1174.00,450.68 L 1178.00,450.52 L 1179.98,450.53 L 1183.53,451.07 L 1185.24,451.43 L 1188.28,452.70 L 1189.75,453.43 L 1192.33,455.45 L 1195.74,459.34 L 1196.43,460.33 L 1197.34,461.95 L 1197.53,462.39 L 1197.84,463.40 L 1197.98,463.95 L 1198.19,465.32 L 1198.29,466.06 L 1198.43,467.97 L 1198.50,469.01 L 1198.59,471.64 L 1198.64,473.07 L 1198.71,476.62 L 1198.73,477.57 L 1198.77,479.67 L 1198.83,483.16 L 1199.15,503.00 L 1191.58,503.00 L 1184.00,503.00 L 1184.00,486.95 L 1184.00,484.76 L 1183.96,481.03 L 1183.93,479.26 L 1183.81,476.30 L 1183.74,474.91 L 1183.52,472.61 L 1183.39,471.54 L 1183.04,469.81 L 1182.85,469.00 L 1182.34,467.72 L 1182.07,467.13 L 1181.38,466.19 L 1181.01,465.76 L 1180.12,465.07 L 1178.53,464.19 L 1177.58,463.76 L 1175.69,463.27 L 1174.75,463.09 L 1172.87,463.09 L 1171.93,463.16 L 1170.07,463.65 L 1167.31,464.95 L 1166.67,465.35 L 1165.58,466.11 L 1165.07,466.50 L 1164.23,467.35 L 1163.83,467.80 L 1163.20,468.86 L 1162.91,469.43 L 1162.46,470.84 L 1162.25,471.60 L 1161.93,473.47 L 1161.79,474.48 L 1161.58,476.96 L 1161.49,478.28 L 1161.35,481.49 L 1161.17,487.25 L 1160.79,503.00 L 1153.40,503.00 L 1146.00,503.00 L 1146.00,477.00 M 1031.50,443.26 L 1030.71,443.08 L 1029.32,442.44 L 1028.66,442.08 L 1027.55,441.13 L 1027.04,440.63 L 1026.23,439.46 L 1025.87,438.85 L 1025.39,437.53 L 1025.19,436.85 L 1025.06,435.45 L 1025.04,434.74 L 1025.27,433.33 L 1025.43,432.64 L 1026.06,431.30 L 1027.45,429.45 L 1028.25,428.66 L 1030.28,427.64 L 1031.34,427.23 L 1033.69,426.97 L 1034.87,426.93 L 1037.21,427.44 L 1040.37,429.07 L 1041.23,429.75 L 1042.33,431.32 L 1042.79,432.14 L 1043.16,433.87 L 1043.25,434.74 L 1042.96,436.49 L 1042.75,437.35 L 1041.89,438.97 L 1041.41,439.76 L 1040.08,441.11 L 1039.36,441.74 L 1037.65,442.68 L 1036.76,443.08 L 1034.75,443.46 L 1033.71,443.57 M 1119.42,442.59 L 1118.40,442.14 L 1116.76,440.75 L 1116.02,440.00 L 1115.03,438.17 L 1114.63,437.22 L 1114.38,435.18 L 1114.95,432.13 L 1115.23,431.44 L 1116.09,430.26 L 1116.56,429.70 L 1117.73,428.78 L 1118.35,428.36 L 1119.73,427.72 L 1120.45,427.44 L 1121.97,427.10 L 1122.73,426.97 L 1124.30,426.94 L 1125.07,426.97 L 1126.59,427.26 L 1127.34,427.45 L 1128.72,428.09 L 1130.55,429.45 L 1131.40,430.31 L 1132.40,432.14 L 1132.79,433.07 L 1132.97,434.95 L 1132.96,435.88 L 1132.43,437.67 L 1132.09,438.53 L 1130.97,440.09 L 1130.35,440.82 L 1128.76,442.00 L 1127.92,442.53 L 1125.98,443.20 L 1124.98,443.45 L 1122.81,443.46 L 1121.71,443.37 M 708.50,411.06 L 705.79,410.60 L 700.57,409.51 L 697.99,408.93 L 693.03,407.60 L 690.58,406.90 L 685.89,405.32 L 683.58,404.49 L 679.16,402.67 L 676.98,401.73 L 672.83,399.67 L 670.79,398.61 L 666.91,396.31 L 665.01,395.13 L 661.41,392.60 L 659.65,391.30 L 656.34,388.54 L 654.71,387.13 L 651.68,384.14 L 650.20,382.61 L 647.46,379.39 L 646.12,377.76 L 643.67,374.31 L 642.48,372.57 L 640.32,368.90 L 639.28,367.04 L 637.41,363.16 L 636.52,361.19 L 634.95,357.09 L 634.20,355.02 L 632.94,350.71 L 631.38,344.00 L 631.11,342.61 L 630.65,339.22 L 630.42,337.44 L 630.05,333.42 L 629.87,331.35 L 629.60,326.91 L 629.48,324.66 L 629.31,320.01 L 629.25,317.69 L 629.19,313.06 L 629.18,310.76 L 629.25,306.35 L 629.30,304.20 L 629.50,300.23 L 629.94,295.00 L 630.32,291.75 L 631.46,285.91 L 632.11,283.06 L 633.89,277.71 L 634.88,275.06 L 637.47,269.81 L 638.17,268.48 L 639.75,265.78 L 642.40,261.61 L 644.05,259.13 L 647.28,254.96 L 648.91,252.98 L 652.27,249.64 L 654.00,248.05 L 657.72,245.33 L 663.98,241.72 L 670.46,238.50 L 722.48,238.50 L 774.50,238.50 L 781.02,241.26 L 782.79,242.01 L 786.19,243.77 L 787.87,244.68 L 791.06,246.74 L 792.63,247.80 L 795.58,250.12 L 797.01,251.31 L 799.68,253.87 L 800.98,255.18 L 803.33,257.94 L 804.46,259.34 L 806.47,262.26 L 807.42,263.74 L 809.04,266.80 L 811.01,271.50 L 811.41,272.67 L 812.15,275.22 L 812.51,276.52 L 813.14,279.31 L 813.75,282.15 L 814.68,288.41 L 815.10,291.61 L 815.63,298.41 L 815.85,301.85 L 815.99,308.91 L 816.01,312.45 L 815.75,319.52 L 815.56,323.02 L 814.90,329.83 L 814.52,333.18 L 813.46,339.46 L 811.42,348.00 L 810.97,349.49 L 809.82,352.62 L 809.21,354.21 L 807.76,357.46 L 806.25,360.73 L 802.53,367.30 L 800.58,370.54 L 796.27,376.60 L 795.17,378.05 L 792.92,380.75 L 789.53,384.43 L 787.44,386.51 L 783.00,390.34 L 780.73,392.20 L 775.95,395.57 L 773.52,397.20 L 768.42,400.09 L 765.83,401.48 L 760.45,403.89 L 757.73,405.03 L 752.08,406.95 L 749.23,407.84 L 743.36,409.24 L 740.40,409.88 L 734.32,410.76 L 725.00,411.49 L 721.84,411.60 L 715.41,411.53 L 713.91,411.49 L 711.35,411.35 L 710.17,411.27 M 252.40,405.60 L 252.33,405.41 L 252.22,404.79 L 252.17,404.45 L 252.11,403.62 L 252.18,400.85 L 252.50,397.50 L 262.40,396.79 L 264.56,396.64 L 268.39,396.14 L 270.23,395.86 L 273.46,395.07 L 275.01,394.63 L 277.70,393.51 L 278.98,392.91 L 281.17,391.42 L 282.21,390.63 L 283.96,388.73 L 284.78,387.73 L 286.14,385.39 L 286.77,384.16 L 287.78,381.33 L 288.97,376.50 L 289.02,376.23 L 289.12,375.34 L 289.17,374.83 L 289.25,373.44 L 289.29,372.69 L 289.37,370.79 L 289.41,369.78 L 289.48,367.35 L 289.51,366.07 L 289.57,363.10 L 289.60,361.55 L 289.65,358.01 L 289.67,356.17 L 289.72,352.06 L 289.74,349.93 L 289.77,345.21 L 289.79,342.77 L 289.82,337.44 L 289.83,334.69 L 289.85,328.72 L 289.86,325.66 L 289.87,319.03 L 289.87,315.64 L 289.88,308.34 L 289.88,304.60 L 289.88,296.61 L 289.87,292.53 L 289.86,283.84 L 289.86,279.40 L 289.84,269.97 L 289.80,255.00 L 289.79,252.01 L 289.78,246.25 L 289.77,243.41 L 289.75,237.93 L 289.75,235.23 L 289.73,230.03 L 289.72,227.47 L 289.70,222.54 L 289.69,217.68 L 289.65,208.75 L 289.63,204.41 L 289.59,196.46 L 289.57,192.61 L 289.53,185.60 L 289.51,182.21 L 289.46,176.08 L 289.44,173.12 L 289.38,167.81 L 289.35,165.26 L 289.29,160.72 L 289.26,158.54 L 289.20,154.71 L 289.16,152.88 L 289.09,149.71 L 289.05,148.20 L 288.96,145.62 L 288.92,144.40 L 288.83,142.37 L 288.78,141.41 L 288.67,139.86 L 288.62,139.14 L 288.50,138.02 L 288.45,137.51 L 288.32,136.76 L 288.11,136.00 L 287.57,134.63 L 286.21,132.12 L 285.49,130.90 L 283.82,128.75 L 282.95,127.72 L 281.01,125.99 L 277.88,123.94 L 277.46,123.73 L 276.23,123.28 L 275.56,123.06 L 273.91,122.61 L 272.18,122.16 L 267.97,121.34 L 265.82,120.96 L 261.45,120.39 L 260.40,120.27 L 258.41,120.11 L 255.75,120.01 L 255.40,120.01 L 254.88,119.81 L 254.65,119.67 L 254.35,119.11 L 254.22,118.77 L 254.08,117.73 L 254.00,115.50 L 254.00,111.00 L 313.00,111.00 L 372.00,111.00 L 372.00,115.50 L 372.00,116.50 L 371.93,117.89 L 371.87,118.50 L 371.62,119.25 L 371.47,119.56 L 370.94,119.87 L 369.75,120.02 L 368.85,120.02 L 366.74,120.13 L 365.65,120.20 L 363.27,120.42 L 360.86,120.66 L 355.81,121.37 L 354.58,121.56 L 352.23,121.97 L 351.09,122.17 L 349.04,122.60 L 348.06,122.82 L 346.44,123.25 L 344.64,123.87 L 343.38,124.44 L 341.09,125.89 L 339.98,126.67 L 338.00,128.53 L 337.04,129.50 L 335.39,131.74 L 333.30,135.50 L 333.10,135.96 L 332.75,137.01 L 332.59,137.58 L 332.32,139.11 L 332.19,139.96 L 331.99,142.30 L 331.94,142.95 L 331.85,144.45 L 331.81,145.24 L 331.74,147.06 L 331.70,148.02 L 331.64,150.19 L 331.61,151.33 L 331.55,153.90 L 331.53,155.24 L 331.48,158.25 L 331.46,159.81 L 331.42,163.30 L 331.40,165.11 L 331.36,169.11 L 331.34,171.19 L 331.31,175.75 L 331.29,178.11 L 331.26,183.28 L 331.21,191.75 L 330.92,244.00 L 424.02,244.00 L 517.13,244.00 L 516.79,192.75 L 516.77,189.60 L 516.74,183.87 L 516.72,181.10 L 516.68,176.08 L 516.66,173.65 L 516.62,169.28 L 516.60,167.17 L 516.56,163.40 L 516.54,161.58 L 516.49,158.36 L 516.47,156.81 L 516.42,154.08 L 516.39,152.78 L 516.32,150.49 L 516.29,149.40 L 516.21,147.51 L 516.17,146.60 L 516.07,145.05 L 516.03,144.30 L 515.91,143.03 L 515.80,141.82 L 515.50,140.03 L 515.34,139.20 L 514.95,137.87 L 514.22,135.91 L 513.71,134.64 L 512.57,132.40 L 511.98,131.33 L 510.62,129.48 L 509.91,128.59 L 508.26,127.08 L 507.38,126.36 L 505.35,125.15 L 504.28,124.57 L 501.79,123.62 L 500.48,123.17 L 497.46,122.42 L 495.87,122.08 L 492.23,121.51 L 485.99,120.80 L 474.00,119.69 L 474.00,115.35 L 474.00,111.00 L 534.00,111.00 L 594.00,111.00 L 594.00,115.41 L 594.00,119.83 L 586.25,120.49 L 583.73,120.70 L 579.33,121.32 L 577.24,121.67 L 573.63,122.60 L 571.92,123.12 L 569.02,124.46 L 567.65,125.18 L 565.37,126.99 L 564.31,127.96 L 562.57,130.32 L 561.76,131.57 L 560.47,134.55 L 559.88,136.13 L 558.97,139.82 L 557.92,146.22 L 557.88,146.55 L 557.81,147.65 L 557.77,148.27 L 557.70,149.95 L 557.67,150.86 L 557.60,153.11 L 557.57,154.30 L 557.52,157.11 L 557.49,158.58 L 557.44,161.93 L 557.41,163.67 L 557.37,167.56 L 557.35,169.58 L 557.31,173.99 L 557.29,176.26 L 557.26,181.20 L 557.25,183.73 L 557.22,189.17 L 557.21,191.95 L 557.19,197.88 L 557.18,200.91 L 557.17,207.33 L 557.17,210.60 L 557.16,217.49 L 557.16,221.00 L 557.16,228.36 L 557.17,232.10 L 557.18,239.91 L 557.18,243.87 L 557.20,252.13 L 557.23,265.00 L 557.24,268.20 L 557.26,274.34 L 557.27,277.36 L 557.28,283.14 L 557.29,285.99 L 557.31,291.43 L 557.32,294.11 L 557.34,299.21 L 557.35,301.72 L 557.36,306.51 L 557.37,308.86 L 557.39,313.34 L 557.40,315.54 L 557.42,319.72 L 557.43,321.77 L 557.45,325.66 L 557.46,327.57 L 557.48,331.18 L 557.49,332.95 L 557.51,336.30 L 557.54,339.58 L 557.59,345.40 L 557.61,348.19 L 557.67,353.09 L 557.70,355.43 L 557.77,359.50 L 557.80,361.44 L 557.88,364.77 L 557.92,366.35 L 558.01,369.02 L 558.06,370.29 L 558.17,372.40 L 558.22,373.40 L 558.34,375.03 L 558.40,375.80 L 558.54,377.05 L 558.61,377.64 L 558.77,378.59 L 559.32,380.76 L 559.77,382.12 L 560.83,384.53 L 561.39,385.68 L 562.68,387.71 L 563.36,388.67 L 564.93,390.34 L 565.75,391.13 L 567.64,392.48 L 568.63,393.11 L 570.89,394.15 L 572.07,394.64 L 574.74,395.41 L 576.13,395.77 L 579.25,396.30 L 584.50,396.85 L 593.50,397.50 L 593.50,402.00 L 593.50,406.50 L 533.00,406.50 L 472.50,406.50 L 472.50,402.00 L 472.50,397.50 L 483.50,396.86 L 485.60,396.74 L 489.34,396.41 L 491.13,396.24 L 494.31,395.79 L 495.83,395.55 L 498.52,394.95 L 499.80,394.63 L 502.07,393.85 L 503.15,393.43 L 505.06,392.45 L 505.98,391.93 L 507.60,390.71 L 508.38,390.07 L 509.79,388.60 L 511.73,386.08 L 512.31,385.21 L 513.28,383.61 L 513.73,382.79 L 514.45,380.92 L 514.78,379.90 L 515.30,377.24 L 515.41,376.50 L 515.61,374.80 L 515.71,373.90 L 515.87,371.82 L 515.95,370.73 L 516.07,368.22 L 516.13,366.90 L 516.23,363.89 L 516.27,362.32 L 516.34,358.76 L 516.37,356.90 L 516.41,352.71 L 516.43,350.53 L 516.46,345.65 L 516.47,343.12 L 516.49,337.49 L 516.49,334.58 L 516.50,328.14 L 516.50,317.50 L 516.50,260.50 L 423.75,260.24 L 331.00,259.99 L 331.00,316.28 L 331.00,320.11 L 331.00,327.10 L 331.01,330.49 L 331.02,336.65 L 331.03,339.63 L 331.06,345.01 L 331.07,347.61 L 331.12,352.29 L 331.15,354.55 L 331.22,358.57 L 331.26,360.51 L 331.36,363.94 L 331.42,365.59 L 331.55,368.50 L 331.62,369.89 L 331.79,372.33 L 331.89,373.50 L 332.10,375.53 L 332.21,376.50 L 332.48,378.18 L 332.62,378.98 L 332.93,380.38 L 333.10,381.04 L 333.47,382.21 L 333.86,383.33 L 334.82,385.15 L 336.60,387.72 L 337.18,388.48 L 338.42,389.82 L 339.07,390.46 L 340.49,391.58 L 341.22,392.11 L 342.88,393.03 L 343.74,393.47 L 345.69,394.22 L 346.71,394.57 L 349.02,395.16 L 350.22,395.44 L 352.95,395.90 L 354.37,396.11 L 357.58,396.46 L 363.00,396.87 L 373.50,397.50 L 373.50,402.00 L 373.50,406.50 L 313.22,406.76 L 310.02,406.77 L 304.11,406.79 L 301.23,406.80 L 295.94,406.82 L 293.36,406.83 L 288.65,406.84 L 286.36,406.84 L 282.20,406.84 L 280.18,406.84 L 276.53,406.83 L 274.77,406.82 L 271.61,406.80 L 270.09,406.79 L 267.38,406.77 L 266.08,406.75 L 263.79,406.71 L 262.70,406.69 L 260.80,406.64 L 259.90,406.61 L 258.36,406.55 L 257.62,406.52 L 256.40,406.45 L 255.83,406.41 L 254.90,406.32 L 254.04,406.23 L 253.05,406.01 L 252.65,405.89 M 842.68,406.34 L 842.58,406.25 L 842.41,405.83 L 842.33,405.59 L 842.20,404.93 L 842.00,402.48 L 842.00,399.29 L 848.92,398.71 L 850.95,398.54 L 854.28,397.97 L 855.84,397.63 L 858.40,396.66 L 859.61,396.11 L 861.64,394.64 L 864.31,391.75 L 865.26,390.47 L 866.67,387.89 L 866.99,387.21 L 867.54,385.72 L 867.80,384.94 L 868.24,383.16 L 868.45,382.23 L 868.82,380.07 L 868.99,378.94 L 869.30,376.29 L 869.45,374.89 L 869.73,371.65 L 870.15,366.00 L 870.23,364.73 L 870.38,361.53 L 870.45,359.83 L 870.56,355.86 L 870.61,353.80 L 870.70,349.19 L 870.73,346.83 L 870.79,341.72 L 870.81,339.12 L 870.83,333.64 L 870.84,330.86 L 870.84,325.14 L 870.83,319.39 L 870.74,307.71 L 870.71,304.81 L 870.63,299.15 L 870.59,296.36 L 870.50,290.98 L 870.45,288.34 L 870.33,283.37 L 870.27,280.95 L 870.13,276.53 L 870.06,274.40 L 869.91,270.66 L 869.83,268.88 L 869.66,265.94 L 869.57,264.59 L 869.39,262.59 L 869.34,262.15 L 869.24,261.48 L 869.09,260.78 L 868.77,259.76 L 867.53,257.28 L 865.43,254.10 L 864.83,253.39 L 863.70,252.32 L 863.10,251.83 L 861.52,251.00 L 861.07,250.79 L 859.98,250.38 L 859.40,250.17 L 857.99,249.72 L 857.25,249.49 L 855.45,248.97 L 852.25,248.08 L 851.30,247.82 L 849.84,247.30 L 849.19,247.03 L 848.39,246.44 L 848.07,246.14 L 847.98,245.42 L 848.03,245.03 L 848.73,244.11 L 849.17,243.61 L 850.71,242.42 L 851.58,241.78 L 854.02,240.24 L 854.69,239.83 L 856.21,238.94 L 857.00,238.48 L 858.76,237.47 L 859.68,236.96 L 861.70,235.84 L 865.02,234.02 L 866.64,233.13 L 869.65,231.51 L 871.11,230.73 L 873.81,229.30 L 875.12,228.60 L 877.55,227.35 L 878.72,226.74 L 880.88,225.67 L 881.93,225.15 L 883.85,224.24 L 884.78,223.80 L 886.47,223.05 L 888.12,222.34 L 890.82,221.38 L 892.09,220.97 L 894.16,220.57 L 895.13,220.43 L 896.71,220.55 L 897.46,220.67 L 898.73,221.24 L 900.43,222.57 L 900.75,222.90 L 901.22,224.01 L 901.33,224.34 L 901.50,225.21 L 901.58,225.69 L 901.70,226.88 L 901.76,227.52 L 901.84,229.10 L 901.88,229.95 L 901.94,231.98 L 901.96,233.05 L 901.99,235.60 L 902.00,240.07 L 902.00,242.26 L 902.04,246.26 L 902.07,248.16 L 902.15,251.32 L 902.18,252.04 L 902.23,253.27 L 902.26,253.84 L 902.32,254.74 L 902.35,255.15 L 902.42,255.67 L 902.53,256.00 L 902.56,256.00 L 902.82,255.85 L 902.97,255.75 L 903.44,255.41 L 903.95,255.04 L 905.52,253.82 L 906.38,253.14 L 908.48,251.45 L 911.99,248.56 L 914.74,246.28 L 919.84,242.27 L 922.34,240.35 L 927.05,237.05 L 929.36,235.48 L 933.80,232.81 L 936.00,231.55 L 940.30,229.47 L 942.44,228.49 L 946.73,226.93 L 948.88,226.21 L 953.29,225.11 L 955.52,224.62 L 960.18,223.93 L 967.59,223.28 L 970.69,223.12 L 976.72,223.31 L 979.70,223.48 L 985.43,224.34 L 988.24,224.85 L 993.56,226.35 L 1000.99,229.32 L 1001.96,229.80 L 1003.97,230.98 L 1004.98,231.61 L 1007.05,233.06 L 1009.11,234.57 L 1013.13,238.16 L 1015.08,240.01 L 1018.54,243.95 L 1019.35,244.93 L 1020.77,246.89 L 1022.58,249.76 L 1022.98,250.48 L 1023.80,251.77 L 1024.20,252.38 L 1024.95,253.35 L 1025.31,253.79 L 1025.92,254.35 L 1026.56,254.61 L 1026.63,254.59 L 1027.03,254.34 L 1027.27,254.18 L 1027.98,253.70 L 1028.37,253.43 L 1029.35,252.73 L 1029.86,252.37 L 1031.07,251.49 L 1032.33,250.58 L 1035.38,248.34 L 1040.45,244.56 L 1043.22,242.48 L 1048.47,238.81 L 1051.06,237.06 L 1056.01,234.04 L 1058.46,232.60 L 1063.18,230.19 L 1065.53,229.06 L 1070.12,227.23 L 1072.40,226.39 L 1076.93,225.11 L 1079.20,224.54 L 1083.76,223.78 L 1086.06,223.46 L 1090.73,223.19 L 1097.96,223.31 L 1099.82,223.42 L 1103.40,223.79 L 1105.17,224.01 L 1108.59,224.59 L 1110.27,224.90 L 1113.51,225.69 L 1115.11,226.11 L 1118.18,227.09 L 1119.70,227.61 L 1122.59,228.80 L 1124.02,229.43 L 1126.74,230.82 L 1128.08,231.54 L 1130.63,233.14 L 1131.88,233.96 L 1134.26,235.75 L 1135.42,236.68 L 1137.62,238.67 L 1138.70,239.70 L 1140.72,241.90 L 1141.71,243.02 L 1143.55,245.42 L 1144.45,246.64 L 1146.12,249.24 L 1146.93,250.56 L 1148.43,253.35 L 1149.15,254.78 L 1150.46,257.77 L 1151.09,259.29 L 1152.23,262.48 L 1153.72,267.49 L 1153.89,268.11 L 1154.17,269.66 L 1154.31,270.50 L 1154.55,272.66 L 1154.66,273.84 L 1154.86,276.83 L 1154.91,277.64 L 1155.00,279.45 L 1155.05,280.39 L 1155.13,282.49 L 1155.17,283.57 L 1155.25,285.98 L 1155.29,287.22 L 1155.36,289.96 L 1155.40,291.37 L 1155.47,294.48 L 1155.51,296.07 L 1155.57,299.57 L 1155.61,301.37 L 1155.67,305.28 L 1155.71,307.29 L 1155.77,311.64 L 1155.81,313.88 L 1155.87,318.70 L 1155.97,326.50 L 1156.01,329.36 L 1156.08,334.64 L 1156.11,337.21 L 1156.18,341.94 L 1156.21,344.24 L 1156.28,348.46 L 1156.31,350.51 L 1156.38,354.24 L 1156.41,356.05 L 1156.48,359.34 L 1156.51,360.94 L 1156.58,363.81 L 1156.62,365.20 L 1156.70,367.69 L 1156.74,368.90 L 1156.82,371.04 L 1156.86,372.08 L 1156.95,373.91 L 1156.99,374.79 L 1157.09,376.34 L 1157.19,377.83 L 1157.42,380.10 L 1157.54,381.14 L 1157.82,382.72 L 1158.32,384.61 L 1158.71,385.82 L 1159.58,387.95 L 1160.02,388.97 L 1161.01,390.75 L 1161.52,391.60 L 1162.67,393.05 L 1163.27,393.74 L 1164.63,394.90 L 1165.34,395.45 L 1166.93,396.35 L 1167.77,396.76 L 1169.65,397.43 L 1170.63,397.73 L 1172.83,398.19 L 1176.53,398.68 L 1183.00,399.29 L 1183.00,403.14 L 1183.00,407.00 L 1139.50,407.00 L 1096.00,407.00 L 1096.00,403.14 L 1096.00,399.29 L 1102.61,398.67 L 1104.51,398.49 L 1107.74,397.85 L 1109.27,397.47 L 1111.84,396.37 L 1113.05,395.76 L 1115.10,394.14 L 1117.74,391.06 L 1118.30,390.23 L 1119.23,388.69 L 1119.66,387.91 L 1120.36,386.15 L 1120.69,385.20 L 1121.20,382.78 L 1121.31,382.11 L 1121.52,380.58 L 1121.61,379.78 L 1121.78,377.93 L 1121.86,376.96 L 1122.00,374.74 L 1122.07,373.58 L 1122.18,370.94 L 1122.23,369.56 L 1122.32,366.44 L 1122.36,364.81 L 1122.43,361.16 L 1122.47,359.26 L 1122.53,355.02 L 1122.56,352.82 L 1122.61,347.93 L 1122.63,345.40 L 1122.68,339.82 L 1122.75,330.60 L 1122.77,327.12 L 1122.82,320.75 L 1122.83,317.65 L 1122.86,312.00 L 1122.86,309.25 L 1122.86,304.26 L 1122.86,301.85 L 1122.83,297.47 L 1122.81,295.35 L 1122.75,291.53 L 1122.71,289.68 L 1122.61,286.36 L 1122.56,284.76 L 1122.42,281.88 L 1122.34,280.49 L 1122.15,278.00 L 1122.05,276.80 L 1121.81,274.64 L 1121.68,273.60 L 1121.39,271.71 L 1121.08,269.89 L 1120.27,266.84 L 1119.83,265.38 L 1118.74,262.72 L 1116.74,258.67 L 1115.96,257.20 L 1114.21,254.57 L 1113.31,253.31 L 1111.31,251.10 L 1110.27,250.04 L 1107.97,248.22 L 1106.78,247.36 L 1104.16,245.92 L 1102.80,245.24 L 1099.82,244.17 L 1098.28,243.68 L 1094.92,242.95 L 1093.18,242.63 L 1089.39,242.23 L 1083.21,242.00 L 1081.88,242.00 L 1078.95,242.12 L 1077.47,242.20 L 1074.51,242.46 L 1073.05,242.61 L 1070.38,242.97 L 1067.06,243.59 L 1065.96,243.86 L 1063.53,244.61 L 1062.28,245.02 L 1059.62,246.02 L 1056.92,247.08 L 1051.20,249.76 L 1048.35,251.17 L 1042.86,254.30 L 1041.54,255.09 L 1039.06,256.70 L 1035.66,259.10 L 1028.83,264.29 L 1029.26,318.89 L 1029.28,321.24 L 1029.32,325.72 L 1029.34,327.93 L 1029.38,332.12 L 1029.40,334.18 L 1029.45,338.09 L 1029.48,340.01 L 1029.53,343.65 L 1029.55,345.43 L 1029.61,348.78 L 1029.63,350.43 L 1029.69,353.51 L 1029.75,356.53 L 1029.88,361.76 L 1029.95,364.25 L 1030.10,368.44 L 1030.18,370.42 L 1030.35,373.61 L 1030.43,375.08 L 1030.62,377.30 L 1030.92,379.56 L 1031.25,381.20 L 1032.07,384.10 L 1032.50,385.50 L 1033.55,387.94 L 1034.11,389.10 L 1035.43,391.11 L 1036.13,392.07 L 1037.75,393.67 L 1038.60,394.43 L 1040.56,395.67 L 1041.59,396.25 L 1043.93,397.15 L 1045.15,397.56 L 1047.89,398.15 L 1052.50,398.72 L 1060.00,399.29 L 1060.00,403.15 L 1060.00,407.02 L 1012.75,406.76 L 965.50,406.50 L 965.50,403.00 L 965.50,399.50 L 973.19,398.80 L 974.84,398.65 L 977.81,398.17 L 979.25,397.90 L 981.82,397.16 L 983.05,396.76 L 985.24,395.73 L 986.29,395.18 L 988.13,393.84 L 989.00,393.13 L 990.52,391.46 L 991.24,390.58 L 992.47,388.55 L 993.05,387.49 L 994.02,385.08 L 995.21,381.00 L 995.27,380.76 L 995.37,380.04 L 995.43,379.63 L 995.52,378.59 L 995.57,378.03 L 995.67,376.69 L 995.71,375.99 L 995.80,374.38 L 995.88,372.70 L 996.03,368.62 L 996.10,366.47 L 996.22,361.57 L 996.28,359.03 L 996.37,353.49 L 996.42,350.65 L 996.48,344.64 L 996.54,338.54 L 996.58,325.65 L 996.59,319.21 L 996.51,306.68 L 996.49,303.63 L 996.42,297.83 L 996.38,295.00 L 996.28,289.77 L 996.22,287.23 L 996.09,282.73 L 996.03,280.59 L 995.87,276.99 L 995.83,276.15 L 995.74,274.68 L 995.70,273.98 L 995.60,272.79 L 995.56,272.24 L 995.45,271.36 L 995.29,270.40 L 994.84,268.49 L 993.84,265.00 L 993.32,263.31 L 992.17,260.23 L 991.58,258.75 L 990.26,256.07 L 989.57,254.77 L 988.06,252.45 L 987.28,251.32 L 985.55,249.32 L 984.66,248.36 L 982.70,246.65 L 981.68,245.83 L 979.46,244.38 L 975.81,242.46 L 974.52,241.88 L 972.25,241.01 L 971.13,240.62 L 968.87,240.08 L 967.70,239.83 L 964.99,239.52 L 964.26,239.45 L 962.65,239.33 L 959.93,239.19 L 958.85,239.15 L 956.99,239.09 L 956.10,239.06 L 954.54,239.06 L 953.04,239.07 L 950.52,239.33 L 949.27,239.50 L 946.67,240.16 L 945.97,240.36 L 944.44,240.84 L 941.81,241.73 L 939.22,242.62 L 934.13,244.94 L 931.59,246.19 L 926.52,249.28 L 923.98,250.92 L 918.84,254.85 L 910.93,261.75 L 902.85,269.35 L 903.24,323.92 L 903.27,327.65 L 903.32,334.44 L 903.34,337.72 L 903.40,343.68 L 903.42,346.56 L 903.49,351.75 L 903.52,354.25 L 903.60,358.74 L 903.64,360.89 L 903.74,364.73 L 903.79,366.57 L 903.91,369.83 L 903.98,371.39 L 904.13,374.13 L 904.22,375.43 L 904.41,377.71 L 904.51,378.80 L 904.75,380.68 L 904.88,381.58 L 905.16,383.12 L 905.46,384.60 L 906.24,386.81 L 906.66,387.83 L 907.71,389.52 L 909.64,391.99 L 910.57,393.09 L 912.50,394.80 L 913.51,395.59 L 915.79,396.75 L 916.99,397.27 L 919.87,398.00 L 925.13,398.71 L 932.10,399.30 L 931.80,402.90 L 931.50,406.50 L 887.43,406.76 L 884.40,406.78 L 878.56,406.80 L 875.69,406.81 L 870.26,406.81 L 867.61,406.81 L 862.71,406.79 L 860.34,406.78 L 856.10,406.75 L 854.07,406.73 L 850.61,406.68 L 848.98,406.65 L 846.42,406.59 L 845.84,406.57 L 844.87,406.53 L 844.42,406.51 L 843.71,406.47 L 843.40,406.45 L 842.97,406.41 L 842.80,406.39 M 788.50,227.91 L 786.74,227.45 L 783.01,226.61 L 781.10,226.20 L 777.08,225.45 L 775.04,225.09 L 770.76,224.45 L 768.59,224.13 L 764.07,223.59 L 759.48,223.07 L 749.67,222.32 L 744.66,222.00 L 734.11,221.66 L 728.75,221.54 L 717.61,221.60 L 711.98,221.68 L 700.39,222.16 L 694.56,222.44 L 682.68,223.33 L 664.68,225.12 L 662.23,225.41 L 657.72,225.88 L 655.55,226.09 L 651.91,226.40 L 651.07,226.47 L 649.63,226.56 L 648.96,226.60 L 647.88,226.64 L 647.39,226.65 L 646.71,226.64 L 646.22,226.55 L 646.17,226.51 L 646.05,226.13 L 645.98,225.89 L 645.80,225.16 L 645.71,224.76 L 645.49,223.72 L 645.38,223.17 L 645.14,221.86 L 644.89,220.50 L 644.32,217.14 L 643.45,211.50 L 643.23,210.02 L 642.87,207.49 L 642.71,206.29 L 642.44,204.25 L 642.32,203.29 L 642.15,201.71 L 642.08,200.97 L 642.00,199.77 L 641.97,199.22 L 641.98,198.37 L 641.99,197.99 L 642.08,197.43 L 642.66,196.58 L 643.15,196.39 L 644.55,196.05 L 645.32,195.88 L 647.22,195.58 L 648.23,195.44 L 650.58,195.19 L 651.80,195.07 L 654.53,194.87 L 655.94,194.77 L 659.00,194.61 L 660.56,194.54 L 663.88,194.43 L 667.25,194.33 L 674.54,194.27 L 678.24,194.26 L 685.80,194.39 L 689.58,194.47 L 696.95,194.79 L 700.56,194.97 L 707.25,195.47 L 708.86,195.61 L 711.86,195.92 L 716.00,196.43 L 722.92,197.43 L 736.75,200.08 L 740.18,200.79 L 746.95,202.35 L 750.31,203.15 L 756.88,204.88 L 760.13,205.76 L 766.43,207.64 L 769.53,208.60 L 775.48,210.60 L 778.41,211.62 L 783.94,213.74 L 791.68,217.01 L 798.11,219.93 L 797.81,224.63 L 797.72,225.93 L 797.30,228.02 L 797.18,228.46 L 796.91,229.09 L 796.50,229.54 L 796.36,229.56 L 795.56,229.47 L 795.08,229.40 L 793.74,229.14 L 793.01,228.99 L 791.30,228.60 L 790.41,228.39 M 783.00,209.83 L 776.79,207.87 L 764.31,204.35 L 758.04,202.65 L 745.32,199.64 L 738.92,198.20 L 725.80,195.65 L 705.50,192.33 L 703.28,192.01 L 698.51,191.52 L 697.27,191.40 L 694.63,191.21 L 693.28,191.12 L 690.35,190.97 L 688.85,190.90 L 685.59,190.79 L 683.91,190.74 L 680.23,190.66 L 678.34,190.63 L 674.19,190.58 L 667.36,190.55 L 641.22,190.50 L 640.62,185.50 L 640.58,185.16 L 640.50,184.25 L 640.46,183.77 L 640.38,182.61 L 640.31,181.40 L 640.19,178.44 L 640.01,168.50 L 640.00,156.50 L 631.24,152.28 L 629.02,151.21 L 625.01,148.99 L 623.06,147.87 L 619.59,145.53 L 617.92,144.35 L 614.99,141.91 L 613.60,140.67 L 611.23,138.12 L 610.11,136.83 L 608.29,134.18 L 607.45,132.84 L 606.20,130.09 L 605.64,128.70 L 604.95,125.86 L 604.55,121.50 L 604.56,119.67 L 605.09,116.31 L 605.44,114.66 L 606.71,111.55 L 607.44,110.02 L 609.51,107.01 L 613.61,102.45 L 614.81,101.28 L 617.80,99.15 L 619.35,98.14 L 622.74,96.47 L 624.45,95.70 L 627.84,94.66 L 632.50,94.00 L 633.58,94.00 L 635.90,94.34 L 637.08,94.57 L 639.51,95.31 L 640.73,95.73 L 643.17,96.81 L 644.38,97.39 L 646.72,98.74 L 647.87,99.44 L 650.01,101.00 L 651.04,101.80 L 652.87,103.50 L 653.74,104.36 L 655.15,106.14 L 656.70,108.82 L 657.08,109.73 L 657.88,111.06 L 658.07,111.32 L 658.41,111.65 L 658.79,111.77 L 661.68,110.27 L 667.07,107.95 L 669.71,106.90 L 674.60,105.46 L 676.99,104.86 L 681.39,104.31 L 687.45,104.49 L 689.42,104.78 L 693.06,105.46 L 694.84,105.82 L 698.13,106.63 L 699.73,107.06 L 702.71,108.02 L 706.87,109.64 L 707.61,109.97 L 709.01,110.56 L 709.68,110.84 L 710.85,111.31 L 711.40,111.52 L 712.21,111.81 L 712.87,112.00 L 712.96,112.00 L 713.26,111.65 L 713.42,111.43 L 713.84,110.72 L 715.28,107.66 L 715.61,106.86 L 716.50,105.19 L 716.99,104.34 L 718.15,102.60 L 719.38,100.86 L 722.44,97.41 L 724.04,95.73 L 727.54,92.72 L 732.85,89.16 L 734.40,88.33 L 737.67,86.89 L 739.33,86.20 L 742.78,85.05 L 744.52,84.51 L 748.09,83.64 L 749.88,83.25 L 753.52,82.69 L 755.35,82.45 L 759.01,82.19 L 760.84,82.10 L 764.47,82.16 L 766.27,82.23 L 769.82,82.62 L 774.98,83.56 L 777.05,84.04 L 781.01,85.30 L 782.97,85.98 L 786.72,87.61 L 788.56,88.47 L 792.07,90.46 L 793.79,91.50 L 797.04,93.84 L 798.63,95.05 L 801.60,97.71 L 803.05,99.08 L 805.73,102.06 L 807.03,103.59 L 809.39,106.88 L 812.56,112.12 L 813.04,113.03 L 813.84,114.55 L 814.21,115.27 L 814.81,116.52 L 815.36,117.73 L 815.98,119.91 L 816.11,120.48 L 816.27,121.72 L 816.34,122.37 L 816.42,123.87 L 816.46,124.67 L 816.48,126.57 L 816.49,130.00 L 816.49,131.19 L 816.46,133.25 L 816.45,134.23 L 816.37,135.97 L 816.29,137.65 L 815.88,140.56 L 815.62,142.02 L 814.74,145.22 L 814.49,146.08 L 813.86,148.03 L 812.72,151.39 L 812.46,152.14 L 811.84,153.83 L 811.52,154.71 L 810.79,156.61 L 810.03,158.54 L 808.31,162.76 L 807.43,164.88 L 805.60,169.07 L 802.98,174.78 L 797.00,187.29 L 797.00,200.64 L 797.00,202.48 L 796.94,205.82 L 796.90,207.41 L 796.78,210.04 L 796.75,210.64 L 796.67,211.66 L 796.63,212.14 L 796.54,212.88 L 796.50,213.21 L 796.40,213.64 L 796.25,213.89 L 796.20,213.88 L 795.84,213.79 L 795.63,213.73 L 794.97,213.54 L 794.25,213.32 L 792.05,212.65 L 790.85,212.28 L 787.91,211.37 L 786.38,210.89 Z" fill="rgba(226,53,68,1)"/>
</g>
</svg>